<svg width="40" height="40" viewBox="0 0 40 40" fill="none" xmlns="http://www.w3.org/2000/svg">
<rect width="40" height="40" rx="20" fill="url(#paint0_linear_139_5591)" fill-opacity="0.2"/>
<g clip-path="url(#clip0_139_5591)">
<path d="M11.9212 29.1579C10.2254 29.1579 8.84229 27.7747 8.84229 26.0789C8.84229 24.3832 10.2254 23 11.9212 23C13.617 23 15.0002 24.3832 15.0002 26.0789C15.0002 27.7747 13.617 29.1579 11.9212 29.1579ZM11.9212 24.4211C11.007 24.4211 10.2633 25.1647 10.2633 26.0789C10.2633 26.9932 11.007 27.7368 11.9212 27.7368C12.8354 27.7368 13.5791 26.9932 13.5791 26.0789C13.5791 25.1647 12.8354 24.4211 11.9212 24.4211Z" fill="#1072BA"/>
<path d="M19.4998 29.1579C17.8041 29.1579 16.4209 27.7747 16.4209 26.0789C16.4209 24.3832 17.8041 23 19.4998 23C21.1956 23 22.5788 24.3832 22.5788 26.0789C22.5788 27.7747 21.1956 29.1579 19.4998 29.1579ZM19.4998 24.4211C18.5856 24.4211 17.842 25.1647 17.842 26.0789C17.842 26.9932 18.5856 27.7368 19.4998 27.7368C20.4141 27.7368 21.1577 26.9932 21.1577 26.0789C21.1577 25.1647 20.4141 24.4211 19.4998 24.4211Z" fill="#1072BA"/>
<path d="M27.0789 29.1579C25.3832 29.1579 24 27.7747 24 26.0789C24 24.3832 25.3832 23 27.0789 23C28.7747 23 30.1579 24.3832 30.1579 26.0789C30.1579 27.7747 28.7747 29.1579 27.0789 29.1579ZM27.0789 24.4211C26.1647 24.4211 25.4211 25.1647 25.4211 26.0789C25.4211 26.9932 26.1647 27.7368 27.0789 27.7368C27.9932 27.7368 28.7368 26.9932 28.7368 26.0789C28.7368 25.1647 27.9932 24.4211 27.0789 24.4211Z" fill="#1072BA"/>
<path d="M27.0789 24.4211C26.6857 24.4211 26.3683 24.1037 26.3683 23.7105V21.1053H12.6315V23.7105C12.6315 24.1037 12.3141 24.4211 11.921 24.4211C11.5278 24.4211 11.2104 24.1037 11.2104 23.7105V20.3947C11.2104 20.0016 11.5278 19.6842 11.921 19.6842H27.0789C27.472 19.6842 27.7894 20.0016 27.7894 20.3947V23.7105C27.7894 24.1037 27.472 24.4211 27.0789 24.4211Z" fill="#1072BA"/>
<path d="M19.5001 24.4211C19.1069 24.4211 18.7896 24.1037 18.7896 23.7105V17.7847C18.7896 17.3916 19.1069 17.0742 19.5001 17.0742C19.8932 17.0742 20.2106 17.3916 20.2106 17.7847V23.7105C20.2106 24.1037 19.8932 24.4211 19.5001 24.4211Z" fill="#1072BA"/>
<path d="M30.8684 32H8.13158C6.95684 32 6 31.0432 6 29.8684V13.1663C6 11.9916 6.95684 11.0347 8.13158 11.0347H13.4653C13.8584 11.0347 14.1758 11.3521 14.1758 11.7453C14.1758 12.1384 13.8584 12.4558 13.4653 12.4558H8.13158C7.73842 12.4558 7.42105 12.7732 7.42105 13.1663V29.8684C7.42105 30.2616 7.73842 30.5789 8.13158 30.5789H30.8684C31.2616 30.5789 31.5789 30.2616 31.5789 29.8684V13.1663C31.5789 12.7732 31.2616 12.4558 30.8684 12.4558H28.0263C27.6332 12.4558 27.3158 12.1384 27.3158 11.7453C27.3158 11.3521 27.6332 11.0347 28.0263 11.0347H30.8684C32.0432 11.0347 33 11.9916 33 13.1663V29.8684C33 31.0432 32.0432 32 30.8684 32Z" fill="#1072BA"/>
<path d="M19.5 18.4953C15.7816 18.4953 12.75 15.4684 12.75 11.75C12.75 8.03158 15.7816 5 19.5 5C23.2184 5 26.25 8.02684 26.25 11.7453C26.25 15.4637 23.2232 18.4905 19.5 18.4905V18.4953ZM19.5 6.42105C16.5632 6.42105 14.1711 8.80842 14.1711 11.7453C14.1711 14.6821 16.5584 17.0695 19.5 17.0695C22.4416 17.0695 24.8289 14.6821 24.8289 11.7453C24.8289 8.80842 22.4416 6.42105 19.5 6.42105Z" fill="#1072BA"/>
<path d="M15.005 16.3305C14.8819 16.3305 14.7587 16.2974 14.645 16.231C14.3087 16.0321 14.195 15.5963 14.394 15.26C15.455 13.4553 17.4113 12.3374 19.505 12.3374C21.5987 12.3374 23.5313 13.4458 24.5971 15.2316C24.7961 15.5679 24.6871 16.0037 24.3508 16.2074C24.0145 16.4063 23.5787 16.2974 23.375 15.961C22.565 14.6016 21.0824 13.7584 19.505 13.7584C17.9277 13.7584 16.4261 14.611 15.6208 15.98C15.4882 16.2074 15.2513 16.3305 15.0098 16.3305H15.005Z" fill="#1072BA"/>
<path d="M19.4998 13.7584C17.8041 13.7584 16.4209 12.3753 16.4209 10.6795C16.4209 8.98368 17.8041 7.60052 19.4998 7.60052C21.1956 7.60052 22.5788 8.98368 22.5788 10.6795C22.5788 12.3753 21.1956 13.7584 19.4998 13.7584ZM19.4998 9.02158C18.5856 9.02158 17.842 9.76526 17.842 10.6795C17.842 11.5937 18.5856 12.3374 19.4998 12.3374C20.4141 12.3374 21.1577 11.5937 21.1577 10.6795C21.1577 9.76526 20.4141 9.02158 19.4998 9.02158Z" fill="#1072BA"/>
</g>
<defs>
<linearGradient id="paint0_linear_139_5591" x1="-6.8" y1="-3.75" x2="57.1246" y2="2.37755" gradientUnits="userSpaceOnUse">
<stop stop-color="#06B6D4"/>
<stop offset="1" stop-color="#3B82F6"/>
</linearGradient>
<clipPath id="clip0_139_5591">
<rect width="27" height="27" fill="white" transform="translate(6 5)"/>
</clipPath>
</defs>
</svg>
