<svg width="40" height="40" viewBox="0 0 40 40" fill="none" xmlns="http://www.w3.org/2000/svg">
<rect width="40" height="40" rx="20" fill="url(#paint0_linear_157_6228)" fill-opacity="0.2"/>
<g clip-path="url(#clip0_157_6228)">
<path d="M20.8889 31.2859H17.7142C17.2817 31.2859 16.8594 31.1333 16.5236 30.8535C16.198 30.5889 15.9742 30.2226 15.8826 29.8054C15.7757 29.3221 15.4603 28.8998 15.0126 28.6556C14.8956 28.5894 14.7785 28.5182 14.6564 28.4419C14.2545 28.2028 13.7508 28.1214 13.2421 28.2842C12.4128 28.5487 11.4868 28.1926 11.0442 27.4396L9.26346 24.3514C9.09556 24.0614 9.01416 23.7459 9.01416 23.4152C9.01416 22.8759 9.24311 22.3671 9.63995 22.0161C10.0012 21.6854 10.2098 21.197 10.2047 20.6882V20.3219C10.2047 20.1387 10.1843 19.9657 10.1335 19.7877C10.0215 19.3807 10.2607 18.9635 10.6677 18.8515C11.0747 18.7396 11.4919 18.9787 11.6089 19.3857C11.7005 19.7114 11.7412 20.0217 11.731 20.3422V20.6831C11.7463 21.6142 11.3545 22.5249 10.6575 23.1608C10.5557 23.2473 10.5405 23.3491 10.5405 23.4203C10.5405 23.4814 10.5557 23.5424 10.5863 23.5984L12.367 26.6764C12.4484 26.8138 12.6264 26.885 12.7791 26.8342C13.6999 26.5391 14.6463 26.6612 15.4654 27.1496C15.5773 27.2208 15.6638 27.2717 15.7503 27.3226C16.5847 27.7805 17.1749 28.5742 17.3733 29.4849C17.3885 29.5612 17.4292 29.6273 17.4954 29.6782C17.5666 29.7393 17.6378 29.7647 17.7142 29.7647H20.8889C21.3112 29.7647 21.6521 30.1056 21.6521 30.5278C21.6521 30.9501 21.3112 31.291 20.8889 31.291V31.2859Z" fill="#1072BA"/>
<path d="M28.3376 19.8336C28.2155 19.8336 28.0883 19.8031 27.9764 19.742C27.605 19.5436 27.4676 19.0806 27.666 18.7092C27.8441 18.3836 28.068 18.0936 28.3427 17.8443C28.4394 17.7578 28.4597 17.6561 28.4597 17.5849C28.4597 17.5238 28.4445 17.4627 28.4139 17.4068L26.6332 14.3287C26.5518 14.1913 26.3738 14.1201 26.2211 14.171C25.3104 14.4661 24.3743 14.3491 23.5399 13.8606C23.4229 13.7843 23.3364 13.7334 23.2499 13.6877C22.4257 13.2298 21.8355 12.4463 21.6269 11.5305C21.6066 11.444 21.5659 11.3778 21.4946 11.3168C21.459 11.2863 21.3878 11.2456 21.286 11.2456H18.1113C17.689 11.2456 17.3481 10.9047 17.3481 10.4824C17.3481 10.0601 17.689 9.71924 18.1113 9.71924H21.286C21.7134 9.71924 22.1306 9.86678 22.4664 10.1415C22.8073 10.4264 23.026 10.7877 23.1176 11.2049C23.2245 11.6882 23.545 12.1105 23.9876 12.3547C24.1046 12.4208 24.2217 12.492 24.3438 12.5684C24.7508 12.8024 25.2545 12.8838 25.7581 12.7261C26.5925 12.4615 27.5134 12.8177 27.956 13.5706L29.7367 16.6589C29.9046 16.9489 29.986 17.2643 29.986 17.595C29.986 18.1343 29.7571 18.6431 29.3602 18.9942C29.2229 19.1163 29.1059 19.2689 29.0092 19.447C28.8718 19.7013 28.6073 19.8489 28.3376 19.8489V19.8336Z" fill="#1072BA"/>
<path d="M19.4998 26.6053C16.1317 26.6053 13.3945 23.8682 13.3945 20.5001C13.3945 20.0727 13.4352 19.6555 13.5217 19.2638C13.5879 18.9127 13.8982 18.6431 14.2696 18.6431C14.6919 18.6431 15.0328 18.9839 15.0328 19.4011C15.0328 19.4622 15.0277 19.5182 15.0175 19.569C14.9565 19.859 14.9208 20.1694 14.9208 20.495C14.9208 23.3238 17.5003 25.5725 20.4359 24.9773C20.848 24.8908 21.25 25.1604 21.3365 25.5725C21.4179 25.9846 21.1533 26.3866 20.7412 26.4731C20.324 26.5596 19.9068 26.6003 19.4998 26.6003V26.6053Z" fill="#1072BA"/>
<path d="M24.6185 19.7369C24.2878 19.7369 23.9876 19.5232 23.8858 19.1925C23.3109 17.2693 21.5099 15.9211 19.4951 15.9211C19.1797 15.9211 18.8694 15.9567 18.5641 16.0228C18.152 16.1144 17.745 15.8499 17.6534 15.4378C17.5618 15.0257 17.8264 14.6186 18.2385 14.5271C18.6506 14.4355 19.0729 14.3948 19.4951 14.3948C22.1764 14.3948 24.5829 16.1907 25.346 18.755C25.4681 19.1569 25.2341 19.5842 24.8322 19.7064C24.7609 19.7267 24.6846 19.7369 24.6134 19.7369H24.6185Z" fill="#1072BA"/>
<path d="M19.4999 23.0438C18.0957 23.0438 16.9561 21.9041 16.9561 20.4999C16.9561 19.0957 18.0957 17.9561 19.4999 17.9561C20.9041 17.9561 22.0438 19.0957 22.0438 20.4999C22.0438 21.9041 20.9041 23.0438 19.4999 23.0438ZM19.4999 19.4824C18.9403 19.4824 18.4824 19.9403 18.4824 20.4999C18.4824 21.0596 18.9403 21.5175 19.4999 21.5175C20.0596 21.5175 20.5175 21.0596 20.5175 20.4999C20.5175 19.9403 20.0596 19.4824 19.4999 19.4824Z" fill="#1072BA"/>
<path d="M12.2449 20.4949C8.25105 20.4949 5 17.2439 5 13.25C5 9.25614 8.25105 6 12.2449 6C16.2388 6 19.4898 9.25105 19.4898 13.25C19.4898 17.2489 16.2388 20.4949 12.2449 20.4949ZM12.2449 7.52632C9.09053 7.52632 6.52632 10.0905 6.52632 13.25C6.52632 16.4095 9.09053 18.9686 12.2449 18.9686C15.3993 18.9686 17.9635 16.4044 17.9635 13.25C17.9635 10.0956 15.3993 7.52632 12.2449 7.52632Z" fill="#1072BA"/>
<path d="M7.36586 18.2766C7.23867 18.2766 7.11148 18.2461 6.99446 18.18C6.62814 17.9765 6.49077 17.5084 6.69937 17.1421C7.81358 15.1274 9.94534 13.8809 12.2501 13.8809C14.5548 13.8809 16.6764 15.1274 17.8008 17.137C18.0043 17.5033 17.8771 17.9714 17.5057 18.1749C17.1394 18.3835 16.6713 18.2512 16.4678 17.8798C15.6131 16.3535 13.9952 15.4072 12.2501 15.4072C10.505 15.4072 8.882 16.3586 8.03235 17.8849C7.89499 18.1342 7.63042 18.2766 7.36586 18.2766Z" fill="#1072BA"/>
<path d="M12.245 15.4072C10.4236 15.4072 8.93799 13.9216 8.93799 12.1002C8.93799 10.2788 10.4236 8.79321 12.245 8.79321C14.0664 8.79321 15.552 10.2788 15.552 12.1002C15.552 13.9216 14.0664 15.4072 12.245 15.4072ZM12.245 10.3195C11.2631 10.3195 10.4643 11.1183 10.4643 12.1002C10.4643 13.0822 11.2631 13.8809 12.245 13.8809C13.2269 13.8809 14.0257 13.0822 14.0257 12.1002C14.0257 11.1183 13.2269 10.3195 12.245 10.3195Z" fill="#1072BA"/>
<path d="M26.7552 35C22.7613 35 19.5103 31.749 19.5103 27.75C19.5103 23.7511 22.7613 20.5051 26.7552 20.5051C30.749 20.5051 34.0001 23.7562 34.0001 27.75C34.0001 31.7439 30.749 35 26.7552 35ZM26.7552 22.0314C23.6008 22.0314 21.0366 24.5957 21.0366 27.75C21.0366 30.9044 23.6008 33.4737 26.7552 33.4737C29.9096 33.4737 32.4738 30.9095 32.4738 27.75C32.4738 24.5906 29.9096 22.0314 26.7552 22.0314Z" fill="#1072BA"/>
<path d="M31.5527 32.624C31.2932 32.624 31.0439 32.4917 30.8964 32.2526C30.0111 30.7873 28.4645 29.9123 26.755 29.9123C25.0455 29.9123 23.5599 30.7517 22.6696 32.161C22.4457 32.5172 21.9725 32.624 21.6164 32.3951C21.2603 32.1712 21.1534 31.6981 21.3773 31.3419C22.5525 29.49 24.5622 28.3809 26.755 28.3809C28.9478 28.3809 31.0592 29.5612 32.2039 31.4589C32.4227 31.8202 32.3057 32.2882 31.9445 32.507C31.8224 32.5833 31.685 32.6189 31.5527 32.6189V32.624Z" fill="#1072BA"/>
<path d="M26.7548 29.9124C24.9334 29.9124 23.4478 28.4268 23.4478 26.6054C23.4478 24.784 24.9334 23.2983 26.7548 23.2983C28.5762 23.2983 30.0618 24.784 30.0618 26.6054C30.0618 28.4268 28.5762 29.9124 26.7548 29.9124ZM26.7548 24.8247C25.7728 24.8247 24.9741 25.6234 24.9741 26.6054C24.9741 27.5873 25.7728 28.3861 26.7548 28.3861C27.7367 28.3861 28.5355 27.5873 28.5355 26.6054C28.5355 25.6234 27.7367 24.8247 26.7548 24.8247Z" fill="#1072BA"/>
</g>
<defs>
<linearGradient id="paint0_linear_157_6228" x1="-6.8" y1="-3.75" x2="57.1246" y2="2.37755" gradientUnits="userSpaceOnUse">
<stop stop-color="#06B6D4"/>
<stop offset="1" stop-color="#3B82F6"/>
</linearGradient>
<clipPath id="clip0_157_6228">
<rect width="29" height="29" fill="white" transform="translate(5 6)"/>
</clipPath>
</defs>
</svg>
