<svg width="40" height="40" viewBox="0 0 40 40" fill="none" xmlns="http://www.w3.org/2000/svg">
<rect width="40" height="40" rx="20" fill="url(#paint0_linear_139_1612)" fill-opacity="0.2"/>
<g clip-path="url(#clip0_139_1612)">
<path d="M16.2623 17.9319C16.0118 17.9319 15.7711 17.8042 15.6335 17.5782C15.4223 17.2295 15.5353 16.7775 15.8792 16.5663L20.816 13.5698C21.1648 13.3586 21.6167 13.4667 21.8279 13.8154C22.0392 14.1642 21.9262 14.6161 21.5823 14.8274L16.6455 17.8239C16.5276 17.8975 16.395 17.9319 16.2623 17.9319Z" fill="#1072BA"/>
<path d="M25.9101 19.2632C25.5269 19.2632 25.2076 18.9684 25.1781 18.5804L25.0308 16.6007C25.0013 16.193 25.3059 15.8393 25.7087 15.8098C26.1115 15.7804 26.4701 16.0849 26.4996 16.4877L26.6469 18.4674C26.6764 18.8751 26.3718 19.2288 25.969 19.2582C25.9494 19.2582 25.9297 19.2582 25.915 19.2582L25.9101 19.2632Z" fill="#1072BA"/>
<path d="M20.8412 25.0695C20.738 25.0695 20.6299 25.0449 20.5268 25.0007L16.2187 22.9719C15.8503 22.8 15.6931 22.3579 15.865 21.9895C16.037 21.6211 16.4791 21.4639 16.8475 21.6358L21.1556 23.6646C21.524 23.8365 21.6812 24.2786 21.5092 24.647C21.3815 24.9123 21.1163 25.0695 20.8412 25.0695Z" fill="#1072BA"/>
<path d="M11.6404 26.1404C8.25579 26.1404 5.5 23.3846 5.5 20C5.5 16.6154 8.25579 13.8596 11.6404 13.8596C15.0249 13.8596 17.7807 16.6154 17.7807 20C17.7807 23.3846 15.0249 26.1404 11.6404 26.1404ZM11.6404 15.3333C9.06632 15.3333 6.97368 17.426 6.97368 20C6.97368 22.574 9.06632 24.6667 11.6404 24.6667C14.2144 24.6667 16.307 22.574 16.307 20C16.307 17.426 14.2144 15.3333 11.6404 15.3333Z" fill="#1072BA"/>
<path d="M7.57339 24.2933C7.45059 24.2933 7.32778 24.2639 7.2148 24.2C6.86111 24.0035 6.72848 23.5565 6.92988 23.1979C7.87795 21.4884 9.68567 20.4274 11.6457 20.4274C13.6057 20.4274 15.4036 21.4884 16.3566 23.193C16.553 23.5467 16.4302 23.9986 16.0716 24.1951C15.718 24.3916 15.266 24.2688 15.0695 23.9102C14.3769 22.6723 13.0653 21.9011 11.6408 21.9011C10.2162 21.9011 8.90462 22.6723 8.2169 23.9151C8.08427 24.1558 7.82883 24.2933 7.57339 24.2933Z" fill="#1072BA"/>
<path d="M11.6402 21.9011C10.0634 21.9011 8.78125 20.6189 8.78125 19.0421C8.78125 17.4653 10.0634 16.1832 11.6402 16.1832C13.217 16.1832 14.4991 17.4653 14.4991 19.0421C14.4991 20.6189 13.217 21.9011 11.6402 21.9011ZM11.6402 17.6618C10.8788 17.6618 10.2549 18.2807 10.2549 19.047C10.2549 19.8133 10.8739 20.4323 11.6402 20.4323C12.4065 20.4323 13.0255 19.8133 13.0255 19.047C13.0255 18.2807 12.4065 17.6618 11.6402 17.6618Z" fill="#1072BA"/>
<path d="M25.3947 17.2982C22.2803 17.2982 19.7456 14.7635 19.7456 11.6491C19.7456 8.53474 22.2803 6 25.3947 6C28.5091 6 31.0439 8.53474 31.0439 11.6491C31.0439 14.7635 28.5091 17.2982 25.3947 17.2982ZM25.3947 7.47368C23.0909 7.47368 21.2193 9.34526 21.2193 11.6491C21.2193 13.953 23.0909 15.8246 25.3947 15.8246C27.6986 15.8246 29.5702 13.953 29.5702 11.6491C29.5702 9.34526 27.6986 7.47368 25.3947 7.47368Z" fill="#1072BA"/>
<path d="M21.696 15.6182C21.5731 15.6182 21.4503 15.5888 21.3374 15.5249C20.9837 15.3284 20.851 14.8814 21.0524 14.5228C21.9268 12.946 23.5921 11.9684 25.3949 11.9684C27.1977 11.9684 28.8581 12.946 29.7374 14.5179C29.9388 14.8716 29.811 15.3235 29.4524 15.52C29.0988 15.7165 28.6468 15.5937 28.4503 15.2351C27.8314 14.1298 26.6574 13.4421 25.3949 13.4421C24.1324 13.4421 22.9535 14.1298 22.3395 15.2351C22.2068 15.4758 21.9514 15.6133 21.696 15.6133V15.6182Z" fill="#1072BA"/>
<path d="M25.3944 13.4421C23.9256 13.4421 22.7319 12.2484 22.7319 10.7797C22.7319 9.31088 23.9256 8.1172 25.3944 8.1172C26.8632 8.1172 28.0568 9.31088 28.0568 10.7797C28.0568 12.2484 26.8632 13.4421 25.3944 13.4421ZM25.3944 9.59088C24.7361 9.59088 24.2056 10.1263 24.2056 10.7797C24.2056 11.433 24.7411 11.9684 25.3944 11.9684C26.0477 11.9684 26.5832 11.433 26.5832 10.7797C26.5832 10.1263 26.0477 9.59088 25.3944 9.59088Z" fill="#1072BA"/>
<path d="M26.4995 34C22.6433 34 19.5044 30.8611 19.5044 27.0049C19.5044 23.1488 22.6433 20.0098 26.4995 20.0098C30.3556 20.0098 33.4995 23.1488 33.4995 27.0049C33.4995 30.8611 30.3605 34 26.4995 34ZM26.4995 21.4786C23.4539 21.4786 20.9781 23.9544 20.9781 27C20.9781 30.0456 23.4539 32.5214 26.4995 32.5214C29.5451 32.5214 32.0258 30.0456 32.0258 27C32.0258 23.9544 29.55 21.4786 26.4995 21.4786Z" fill="#1072BA"/>
<path d="M31.1369 31.706C30.8863 31.706 30.6456 31.5782 30.5032 31.3474C29.6484 29.9326 28.1551 29.0877 26.5046 29.0877C24.854 29.0877 23.3656 29.9277 22.5109 31.3375C22.2997 31.6863 21.8477 31.7944 21.499 31.5832C21.1502 31.3719 21.0421 30.92 21.2533 30.5712C22.3783 28.7193 24.3432 27.614 26.5095 27.614C28.6758 27.614 30.6653 28.7537 31.7705 30.586C31.9818 30.9347 31.8688 31.3867 31.52 31.5979C31.4021 31.6716 31.2695 31.706 31.1418 31.706H31.1369Z" fill="#1072BA"/>
<path d="M26.4996 29.0877C24.741 29.0877 23.3066 27.6533 23.3066 25.8947C23.3066 24.1361 24.741 22.7018 26.4996 22.7018C28.2582 22.7018 29.6926 24.1361 29.6926 25.8947C29.6926 27.6533 28.2582 29.0877 26.4996 29.0877ZM26.4996 24.1754C25.5516 24.1754 24.7803 24.9467 24.7803 25.8947C24.7803 26.8428 25.5516 27.614 26.4996 27.614C27.4477 27.614 28.2189 26.8428 28.2189 25.8947C28.2189 24.9467 27.4477 24.1754 26.4996 24.1754Z" fill="#1072BA"/>
</g>
<defs>
<linearGradient id="paint0_linear_139_1612" x1="-6.8" y1="-3.75" x2="57.1246" y2="2.37755" gradientUnits="userSpaceOnUse">
<stop stop-color="#06B6D4"/>
<stop offset="1" stop-color="#3B82F6"/>
</linearGradient>
<clipPath id="clip0_139_1612">
<rect width="28" height="28" fill="white" transform="translate(5.5 6)"/>
</clipPath>
</defs>
</svg>
