<svg width="40" height="41" viewBox="0 0 40 41" fill="none" xmlns="http://www.w3.org/2000/svg">
<rect y="0.75" width="40" height="40" rx="20" fill="url(#paint0_linear_139_5674)" fill-opacity="0.2"/>
<g clip-path="url(#clip0_139_5674)">
<path d="M21.8684 31.4079H6.71053C6.31737 31.4079 6 31.0905 6 30.6974V7.96053C6 7.56737 6.31737 7.25 6.71053 7.25H26.1316C26.5247 7.25 26.8421 7.56737 26.8421 7.96053V19.8026C26.8421 20.1958 26.5247 20.5132 26.1316 20.5132C25.7384 20.5132 25.4211 20.1958 25.4211 19.8026V8.67105H7.42105V29.9868H21.8684C22.2616 29.9868 22.5789 30.3042 22.5789 30.6974C22.5789 31.0905 22.2616 31.4079 21.8684 31.4079Z" fill="#1072BA"/>
<path d="M10.9735 15.3026C10.7841 15.3026 10.6041 15.2268 10.4714 15.0942L9.52406 14.1468C9.24458 13.8674 9.24458 13.4174 9.52406 13.1426C9.80353 12.8632 10.2535 12.8632 10.5283 13.1426L10.8977 13.5121L11.8262 12.2711C12.063 11.9584 12.5083 11.8921 12.8209 12.129C13.1335 12.3658 13.1998 12.8111 12.963 13.1237L11.542 15.0184C11.4188 15.1842 11.2293 15.2884 11.0256 15.3026C11.0067 15.3026 10.9925 15.3026 10.9735 15.3026Z" fill="#1072BA"/>
<path d="M22.8159 14.3553H14.2896C13.8965 14.3553 13.5791 14.0379 13.5791 13.6447C13.5791 13.2516 13.8965 12.9342 14.2896 12.9342H22.8159C23.2091 12.9342 23.5265 13.2516 23.5265 13.6447C23.5265 14.0379 23.2091 14.3553 22.8159 14.3553Z" fill="#1072BA"/>
<path d="M10.9735 20.9868C10.7841 20.9868 10.6041 20.9111 10.4714 20.7784L9.52406 19.8311C9.24458 19.5516 9.24458 19.1016 9.52406 18.8268C9.80353 18.5474 10.2535 18.5474 10.5283 18.8268L10.8977 19.1963L11.8262 17.9553C12.063 17.6426 12.5083 17.5763 12.8209 17.8132C13.1335 18.05 13.1998 18.4953 12.963 18.8079L11.542 20.7026C11.4188 20.8684 11.2293 20.9726 11.0256 20.9868C11.0067 20.9868 10.9925 20.9868 10.9735 20.9868Z" fill="#1072BA"/>
<path d="M22.8159 20.0395H14.2896C13.8965 20.0395 13.5791 19.7221 13.5791 19.3289C13.5791 18.9358 13.8965 18.6184 14.2896 18.6184H22.8159C23.2091 18.6184 23.5265 18.9358 23.5265 19.3289C23.5265 19.7221 23.2091 20.0395 22.8159 20.0395Z" fill="#1072BA"/>
<path d="M10.9735 26.6711C10.7841 26.6711 10.6041 26.5953 10.4714 26.4626L9.52406 25.5153C9.24458 25.2358 9.24458 24.7858 9.52406 24.5111C9.80353 24.2316 10.2535 24.2316 10.5283 24.5111L10.8977 24.8805L11.8262 23.6395C12.063 23.3268 12.5083 23.2605 12.8209 23.4974C13.1335 23.7342 13.1998 24.1795 12.963 24.4921L11.542 26.3868C11.4188 26.5526 11.2293 26.6568 11.0256 26.6711C11.0067 26.6711 10.9925 26.6711 10.9735 26.6711Z" fill="#1072BA"/>
<path d="M19.0265 25.7237H14.2896C13.8965 25.7237 13.5791 25.4063 13.5791 25.0132C13.5791 24.62 13.8965 24.3026 14.2896 24.3026H19.0265C19.4196 24.3026 19.737 24.62 19.737 25.0132C19.737 25.4063 19.4196 25.7237 19.0265 25.7237Z" fill="#1072BA"/>
<path d="M31.3419 34.25H22.8156C21.9014 34.25 21.1577 33.5063 21.1577 32.5921V26.4342C21.1577 25.52 21.9014 24.7763 22.8156 24.7763H31.3419C32.2561 24.7763 32.9998 25.52 32.9998 26.4342V32.5921C32.9998 33.5063 32.2561 34.25 31.3419 34.25ZM22.8156 26.1974C22.683 26.1974 22.5788 26.3016 22.5788 26.4342V32.5921C22.5788 32.7247 22.683 32.829 22.8156 32.829H31.3419C31.4746 32.829 31.5788 32.7247 31.5788 32.5921V26.4342C31.5788 26.3016 31.4746 26.1974 31.3419 26.1974H22.8156Z" fill="#1072BA"/>
<path d="M30.3948 26.1974C30.0017 26.1974 29.6843 25.88 29.6843 25.4868V24.0658C29.6843 23.6726 29.3669 23.3553 28.9738 23.3553H25.1843C24.7912 23.3553 24.4738 23.6726 24.4738 24.0658V25.4868C24.4738 25.88 24.1564 26.1974 23.7633 26.1974C23.3701 26.1974 23.0527 25.88 23.0527 25.4868V24.0658C23.0527 22.891 24.0096 21.9342 25.1843 21.9342H28.9738C30.1485 21.9342 31.1054 22.891 31.1054 24.0658V25.4868C31.1054 25.88 30.788 26.1974 30.3948 26.1974Z" fill="#1072BA"/>
<path d="M27.079 30.6358C25.3027 30.6358 23.5216 30.3658 21.7548 29.8305C21.3806 29.7168 21.1674 29.3189 21.2811 28.9447C21.3948 28.5705 21.7927 28.3574 22.1669 28.4711C25.4306 29.4611 28.7416 29.4611 32.0053 28.4663C32.3795 28.3526 32.7774 28.5611 32.8911 28.94C33.0048 29.3142 32.7916 29.7121 32.4174 29.8258C30.6458 30.3658 28.86 30.6358 27.0695 30.6358H27.079Z" fill="#1072BA"/>
<path d="M24.2369 31.8816C23.8437 31.8816 23.5264 31.5642 23.5264 31.1711V29.6837C23.5264 29.2905 23.8437 28.9732 24.2369 28.9732C24.6301 28.9732 24.9474 29.2905 24.9474 29.6837V31.1711C24.9474 31.5642 24.6301 31.8816 24.2369 31.8816Z" fill="#1072BA"/>
<path d="M29.921 31.8816C29.5278 31.8816 29.2104 31.5642 29.2104 31.1711V29.6837C29.2104 29.2905 29.5278 28.9732 29.921 28.9732C30.3141 28.9732 30.6315 29.2905 30.6315 29.6837V31.1711C30.6315 31.5642 30.3141 31.8816 29.921 31.8816Z" fill="#1072BA"/>
</g>
<defs>
<linearGradient id="paint0_linear_139_5674" x1="-6.8" y1="-3" x2="57.1246" y2="3.12755" gradientUnits="userSpaceOnUse">
<stop stop-color="#06B6D4"/>
<stop offset="1" stop-color="#3B82F6"/>
</linearGradient>
<clipPath id="clip0_139_5674">
<rect width="27" height="27" fill="white" transform="translate(6 7.25)"/>
</clipPath>
</defs>
</svg>
