<svg width="40" height="40" viewBox="0 0 40 40" fill="none" xmlns="http://www.w3.org/2000/svg">
<rect width="40" height="40" rx="20" fill="url(#paint0_linear_139_1599)" fill-opacity="0.2"/>
<g clip-path="url(#clip0_139_1599)">
<path d="M19.9737 28.2632H8.13158C6.95684 28.2632 6 27.3063 6 26.1316V11.9211C6 10.7463 6.95684 9.78947 8.13158 9.78947H28.0263C29.2011 9.78947 30.1579 10.7463 30.1579 11.9211V20.3053C30.1579 20.6984 29.8405 21.0158 29.4474 21.0158C29.0542 21.0158 28.7368 20.6984 28.7368 20.3053V11.9211C28.7368 11.5279 28.4195 11.2105 28.0263 11.2105H8.13158C7.73842 11.2105 7.42105 11.5279 7.42105 11.9211V26.1316C7.42105 26.5247 7.73842 26.8421 8.13158 26.8421H19.9737C20.3668 26.8421 20.6842 27.1595 20.6842 27.5526C20.6842 27.9458 20.3668 28.2632 19.9737 28.2632Z" fill="#1072BA"/>
<path d="M16.1842 18.3158H9.55263C7.59158 18.3158 6 16.7242 6 14.7632C6 14.37 6.31737 14.0526 6.71053 14.0526C7.10368 14.0526 7.42105 14.37 7.42105 14.7632C7.42105 15.9379 8.37789 16.8947 9.55263 16.8947H16.1842C16.5774 16.8947 16.8947 17.2121 16.8947 17.6053C16.8947 17.9984 16.5774 18.3158 16.1842 18.3158Z" fill="#1072BA"/>
<path d="M26.6053 18.3158H19.9737C19.5806 18.3158 19.2632 17.9984 19.2632 17.6053C19.2632 17.2121 19.5806 16.8947 19.9737 16.8947H26.6053C27.78 16.8947 28.7369 15.9379 28.7369 14.7632C28.7369 14.37 29.0542 14.0526 29.4474 14.0526C29.8406 14.0526 30.1579 14.37 30.1579 14.7632C30.1579 16.7242 28.5663 18.3158 26.6053 18.3158Z" fill="#1072BA"/>
<path d="M18.0789 21.1579C17.9699 21.1579 17.861 21.1342 17.7615 21.0821L15.8668 20.1347C15.6252 20.0163 15.4736 19.77 15.4736 19.5V15.7105C15.4736 15.3174 15.791 15 16.1842 15H19.9736C20.3668 15 20.6842 15.3174 20.6842 15.7105V19.5C20.6842 19.77 20.5326 20.0163 20.291 20.1347L18.3963 21.0821C18.2968 21.1342 18.1878 21.1579 18.0789 21.1579ZM16.8947 19.0595L18.0789 19.6516L19.2631 19.0595V16.4211H16.8947V19.0595Z" fill="#1072BA"/>
<path d="M22.8156 11.2105C22.4224 11.2105 22.105 10.8932 22.105 10.5V8.13158C22.105 7.73842 21.7877 7.42105 21.3945 7.42105H14.7629C14.3698 7.42105 14.0524 7.73842 14.0524 8.13158V10.5C14.0524 10.8932 13.735 11.2105 13.3419 11.2105C12.9487 11.2105 12.6313 10.8932 12.6313 10.5V8.13158C12.6313 6.95684 13.5882 6 14.7629 6H21.3945C22.5692 6 23.5261 6.95684 23.5261 8.13158V10.5C23.5261 10.8932 23.2087 11.2105 22.8156 11.2105Z" fill="#1072BA"/>
<path d="M32.2897 33H22.816C22.4228 33 22.1055 32.6826 22.1055 32.2895V20.4474C22.1055 20.0542 22.4228 19.7368 22.816 19.7368H32.2897C32.6828 19.7368 33.0002 20.0542 33.0002 20.4474V32.2895C33.0002 32.6826 32.6828 33 32.2897 33ZM23.5265 31.5789H31.5792V21.1579H23.5265V31.5789Z" fill="#1072BA"/>
<path d="M26.6053 23.4979H24.7105C24.3174 23.4979 24 23.1805 24 22.7874C24 22.3942 24.3174 22.0768 24.7105 22.0768H26.6053C26.9984 22.0768 27.3158 22.3942 27.3158 22.7874C27.3158 23.1805 26.9984 23.4979 26.6053 23.4979Z" fill="#1072BA"/>
<path d="M30.3947 25.8758H24.7105C24.3174 25.8758 24 25.5584 24 25.1653C24 24.7721 24.3174 24.4547 24.7105 24.4547H30.3947C30.7879 24.4547 31.1053 24.7721 31.1053 25.1653C31.1053 25.5584 30.7879 25.8758 30.3947 25.8758Z" fill="#1072BA"/>
<path d="M30.3947 28.2584H24.7105C24.3174 28.2584 24 27.9411 24 27.5479C24 27.1547 24.3174 26.8374 24.7105 26.8374H30.3947C30.7879 26.8374 31.1053 27.1547 31.1053 27.5479C31.1053 27.9411 30.7879 28.2584 30.3947 28.2584Z" fill="#1072BA"/>
<path d="M30.3665 30.66H28.4718C28.0786 30.66 27.7612 30.3426 27.7612 29.9495C27.7612 29.5563 28.0786 29.2389 28.4718 29.2389H30.3665C30.7597 29.2389 31.077 29.5563 31.077 29.9495C31.077 30.3426 30.7597 30.66 30.3665 30.66Z" fill="#1072BA"/>
</g>
<defs>
<linearGradient id="paint0_linear_139_1599" x1="-6.8" y1="-3.75" x2="57.1246" y2="2.37755" gradientUnits="userSpaceOnUse">
<stop stop-color="#06B6D4"/>
<stop offset="1" stop-color="#3B82F6"/>
</linearGradient>
<clipPath id="clip0_139_1599">
<rect width="27" height="27" fill="white" transform="translate(6 6)"/>
</clipPath>
</defs>
</svg>
