<svg width="40" height="40" viewBox="0 0 40 40" fill="none" xmlns="http://www.w3.org/2000/svg">
<rect width="40" height="40" rx="20" fill="url(#paint0_linear_157_6213)" fill-opacity="0.2"/>
<g clip-path="url(#clip0_157_6213)">
<path d="M16.6578 26.8947C16.6578 26.8947 16.6436 26.8947 16.6341 26.8947C16.2409 26.8805 15.933 26.5537 15.9473 26.1653L16.3688 12.4474C16.3783 12.0542 16.7099 11.7321 17.0983 11.7605C17.4915 11.7747 17.7994 12.1016 17.7851 12.49L17.3636 26.2079C17.3541 26.5916 17.0367 26.8947 16.653 26.8947H16.6578Z" fill="#1072BA"/>
<path d="M20.4475 26.8947C20.0638 26.8947 19.7512 26.5916 19.737 26.2079L19.3154 12.49C19.3012 12.0969 19.6091 11.77 20.0023 11.7605C20.3954 11.7321 20.7223 12.0542 20.7317 12.4474L21.1533 26.1653C21.1675 26.5584 20.8596 26.8853 20.4665 26.8947C20.457 26.8947 20.4523 26.8947 20.4428 26.8947H20.4475Z" fill="#1072BA"/>
<path d="M18.5526 13.6316C16.7242 13.6316 15.2368 12.1442 15.2368 10.3158C15.2368 8.48737 16.7242 7 18.5526 7C20.381 7 21.8684 8.48737 21.8684 10.3158C21.8684 12.1442 20.381 13.6316 18.5526 13.6316ZM18.5526 8.42105C17.5058 8.42105 16.6579 9.26895 16.6579 10.3158C16.6579 11.3626 17.5058 12.2105 18.5526 12.2105C19.5994 12.2105 20.4473 11.3626 20.4473 10.3158C20.4473 9.26895 19.5994 8.42105 18.5526 8.42105Z" fill="#1072BA"/>
<path d="M15.7106 10.7895H10.5001C10.1069 10.7895 9.78955 10.4721 9.78955 10.0789C9.78955 9.68578 10.1069 9.36841 10.5001 9.36841H15.7106C16.1038 9.36841 16.4211 9.68578 16.4211 10.0789C16.4211 10.4721 16.1038 10.7895 15.7106 10.7895Z" fill="#1072BA"/>
<path d="M26.6051 10.7895H21.3946C21.0015 10.7895 20.6841 10.4721 20.6841 10.0789C20.6841 9.68578 21.0015 9.36841 21.3946 9.36841H26.6051C26.9983 9.36841 27.3157 9.68578 27.3157 10.0789C27.3157 10.4721 26.9983 10.7895 26.6051 10.7895Z" fill="#1072BA"/>
<path d="M10.5 20.7369C8.01789 20.7369 6 18.719 6 16.2369C6 15.8437 6.31737 15.5264 6.71053 15.5264H14.2895C14.6826 15.5264 15 15.8437 15 16.2369C15 18.719 12.9821 20.7369 10.5 20.7369ZM7.50158 16.9474C7.82368 18.3022 9.04579 19.3158 10.5 19.3158C11.9542 19.3158 13.1763 18.3022 13.4984 16.9474H7.50158Z" fill="#1072BA"/>
<path d="M14.2894 16.9474C14.0526 16.9474 13.8157 16.8289 13.6831 16.611L10.4999 11.4384L7.31676 16.611C7.11308 16.9474 6.67255 17.0516 6.34097 16.8431C6.00466 16.6395 5.90045 16.1989 6.10887 15.8674L9.89361 9.70472C10.0215 9.4963 10.2536 9.36841 10.4999 9.36841C10.7462 9.36841 10.9736 9.4963 11.1062 9.70472L14.8957 15.8626C15.0994 16.1989 14.9952 16.6347 14.6636 16.8384C14.5452 16.9095 14.4173 16.9426 14.2894 16.9426V16.9474Z" fill="#1072BA"/>
<path d="M26.6055 20.7369C24.1234 20.7369 22.1055 18.719 22.1055 16.2369C22.1055 15.8437 22.4228 15.5264 22.816 15.5264H30.3949C30.7881 15.5264 31.1055 15.8437 31.1055 16.2369C31.1055 18.719 29.0876 20.7369 26.6055 20.7369ZM23.607 16.9474C23.9292 18.3022 25.1513 19.3158 26.6055 19.3158C28.0597 19.3158 29.2818 18.3022 29.6039 16.9474H23.6118H23.607Z" fill="#1072BA"/>
<path d="M30.3949 16.9473C30.158 16.9473 29.9212 16.8288 29.7885 16.6109L26.6054 11.4383L23.4222 16.6109C23.2185 16.9473 22.778 17.0515 22.4464 16.843C22.1101 16.6394 22.0059 16.1988 22.2143 15.8673L26.0038 9.70936C26.1317 9.50094 26.3638 9.37305 26.6101 9.37305C26.8564 9.37305 27.0838 9.50094 27.2164 9.70936L31.0059 15.8673C31.2096 16.2036 31.1054 16.6394 30.7738 16.843C30.6554 16.9141 30.5275 16.9473 30.3996 16.9473H30.3949Z" fill="#1072BA"/>
<path d="M13.3419 31.6315C12.9487 31.6315 12.6313 31.3142 12.6313 30.921V27.6052C12.6313 26.4305 13.5882 25.4736 14.7629 25.4736H21.8682C22.2613 25.4736 22.5787 25.791 22.5787 26.1842C22.5787 26.5773 22.2613 26.8947 21.8682 26.8947H14.7629C14.3698 26.8947 14.0524 27.2121 14.0524 27.6052V30.921C14.0524 31.3142 13.735 31.6315 13.3419 31.6315Z" fill="#1072BA"/>
<path d="M19.0264 31.6315H10.0264C9.63329 31.6315 9.31592 31.3141 9.31592 30.921C9.31592 30.5278 9.63329 30.2104 10.0264 30.2104H19.0264C19.4196 30.2104 19.737 30.5278 19.737 30.921C19.737 31.3141 19.4196 31.6315 19.0264 31.6315Z" fill="#1072BA"/>
<path d="M31.3419 34.0001H22.8156C21.9014 34.0001 21.1577 33.2564 21.1577 32.3422V26.1843C21.1577 25.2701 21.9014 24.5264 22.8156 24.5264H31.3419C32.2561 24.5264 32.9998 25.2701 32.9998 26.1843V32.3422C32.9998 33.2564 32.2561 34.0001 31.3419 34.0001ZM22.8156 25.9474C22.683 25.9474 22.5788 26.0516 22.5788 26.1843V32.3422C22.5788 32.4748 22.683 32.579 22.8156 32.579H31.3419C31.4746 32.579 31.5788 32.4748 31.5788 32.3422V26.1843C31.5788 26.0516 31.4746 25.9474 31.3419 25.9474H22.8156Z" fill="#1072BA"/>
<path d="M30.3948 25.9475C30.0017 25.9475 29.6843 25.6301 29.6843 25.237V23.8159C29.6843 23.4227 29.3669 23.1054 28.9738 23.1054H25.1843C24.7912 23.1054 24.4738 23.4227 24.4738 23.8159V25.237C24.4738 25.6301 24.1564 25.9475 23.7633 25.9475C23.3701 25.9475 23.0527 25.6301 23.0527 25.237V23.8159C23.0527 22.6412 24.0096 21.6843 25.1843 21.6843H28.9738C30.1485 21.6843 31.1054 22.6412 31.1054 23.8159V25.237C31.1054 25.6301 30.788 25.9475 30.3948 25.9475Z" fill="#1072BA"/>
<path d="M27.0791 30.3859C25.3312 30.3859 23.5786 30.1253 21.8401 29.609C21.4659 29.4953 21.248 29.1022 21.3617 28.7232C21.4754 28.3443 21.8686 28.1359 22.2475 28.2448C25.4875 29.2111 28.7796 29.2016 32.0196 28.2116C32.3938 28.098 32.7917 28.3064 32.9054 28.6853C33.0191 29.0595 32.8107 29.4574 32.4317 29.5711C30.6554 30.1159 28.8649 30.3859 27.0744 30.3859H27.0791Z" fill="#1072BA"/>
<path d="M24.2369 31.6316C23.8437 31.6316 23.5264 31.3142 23.5264 30.921V29.4337C23.5264 29.0405 23.8437 28.7231 24.2369 28.7231C24.6301 28.7231 24.9474 29.0405 24.9474 29.4337V30.921C24.9474 31.3142 24.6301 31.6316 24.2369 31.6316Z" fill="#1072BA"/>
<path d="M29.921 31.6316C29.5278 31.6316 29.2104 31.3142 29.2104 30.921V29.4337C29.2104 29.0405 29.5278 28.7231 29.921 28.7231C30.3141 28.7231 30.6315 29.0405 30.6315 29.4337V30.921C30.6315 31.3142 30.3141 31.6316 29.921 31.6316Z" fill="#1072BA"/>
</g>
<defs>
<linearGradient id="paint0_linear_157_6213" x1="-6.8" y1="-3.75" x2="57.1246" y2="2.37755" gradientUnits="userSpaceOnUse">
<stop stop-color="#06B6D4"/>
<stop offset="1" stop-color="#3B82F6"/>
</linearGradient>
<clipPath id="clip0_157_6213">
<rect width="27" height="27" fill="white" transform="translate(6 7)"/>
</clipPath>
</defs>
</svg>
