<svg width="41" height="40" viewBox="0 0 41 40" fill="none" xmlns="http://www.w3.org/2000/svg">
<rect x="0.5" width="40" height="40" rx="20" fill="url(#paint0_linear_139_1430)" fill-opacity="0.2"/>
<g clip-path="url(#clip0_139_1430)">
<path d="M19.0789 31.1579H7.71053C7.31737 31.1579 7 30.8405 7 30.4474V7.71053C7 7.31737 7.31737 7 7.71053 7H27.1316C27.5247 7 27.8421 7.31737 27.8421 7.71053V21.22C27.8421 21.6132 27.5247 21.9305 27.1316 21.9305C26.7384 21.9305 26.4211 21.6132 26.4211 21.22V8.42105H8.42105V29.7368H19.0789C19.4721 29.7368 19.7895 30.0542 19.7895 30.4474C19.7895 30.8405 19.4721 31.1579 19.0789 31.1579Z" fill="#1072BA"/>
<path d="M13.4939 18.3684H10.5523C10.1592 18.3684 9.8418 18.0511 9.8418 17.6579V14.3421C9.8418 13.949 10.1592 13.6316 10.5523 13.6316H13.4939C13.8871 13.6316 14.2044 13.949 14.2044 14.3421V17.6579C14.2044 18.0511 13.8871 18.3684 13.4939 18.3684ZM11.2628 16.9474H12.7834V15.0526H11.2628V16.9474Z" fill="#1072BA"/>
<path d="M18.8938 18.3684H15.9522C15.5591 18.3684 15.2417 18.0511 15.2417 17.6579V11.0263C15.2417 10.6332 15.5591 10.3158 15.9522 10.3158H18.8938C19.287 10.3158 19.6043 10.6332 19.6043 11.0263V17.6579C19.6043 18.0511 19.287 18.3684 18.8938 18.3684ZM16.658 16.9474H18.1785V11.7368H16.658V16.9474Z" fill="#1072BA"/>
<path d="M24.2898 18.3685H21.3482C20.9551 18.3685 20.6377 18.0511 20.6377 17.6579V12.9211C20.6377 12.5279 20.9551 12.2106 21.3482 12.2106H24.2898C24.683 12.2106 25.0003 12.5279 25.0003 12.9211V17.6579C25.0003 18.0511 24.683 18.3685 24.2898 18.3685ZM22.0587 16.9474H23.5793V13.6316H22.0587V16.9474Z" fill="#1072BA"/>
<path d="M19.5523 22.1579H10.5523C10.1592 22.1579 9.8418 21.8405 9.8418 21.4473C9.8418 21.0542 10.1592 20.7368 10.5523 20.7368H19.5523C19.9455 20.7368 20.2628 21.0542 20.2628 21.4473C20.2628 21.8405 19.9455 22.1579 19.5523 22.1579Z" fill="#1072BA"/>
<path d="M19.5523 24.9999H10.5523C10.1592 24.9999 9.8418 24.6825 9.8418 24.2894C9.8418 23.8962 10.1592 23.5789 10.5523 23.5789H19.5523C19.9455 23.5789 20.2628 23.8962 20.2628 24.2894C20.2628 24.6825 19.9455 24.9999 19.5523 24.9999Z" fill="#1072BA"/>
<path d="M15.2892 27.8421H10.5523C10.1592 27.8421 9.8418 27.5247 9.8418 27.1315C9.8418 26.7384 10.1592 26.421 10.5523 26.421H15.2892C15.6823 26.421 15.9997 26.7384 15.9997 27.1315C15.9997 27.5247 15.6823 27.8421 15.2892 27.8421Z" fill="#1072BA"/>
<path d="M27.2545 34C23.5361 34 20.5093 30.9732 20.5093 27.2548C20.5093 23.5364 23.5361 20.5095 27.2545 20.5095C30.973 20.5095 33.9998 23.5364 33.9998 27.2548C33.9998 30.9732 30.973 34 27.2545 34ZM27.2545 21.9258C24.3177 21.9258 21.9303 24.3132 21.9303 27.25C21.9303 30.1869 24.3177 32.5743 27.2545 32.5743C30.1914 32.5743 32.5788 30.1869 32.5788 27.25C32.5788 24.3132 30.1914 21.9258 27.2545 21.9258Z" fill="#1072BA"/>
<path d="M27.255 30.5799C26.4544 30.5799 25.725 30.111 25.4408 29.4099C25.2939 29.0452 25.4692 28.6331 25.8292 28.4862C26.1939 28.3394 26.606 28.5147 26.7529 28.8747C26.8192 29.0404 27.0229 29.1589 27.2502 29.1589C27.6339 29.1589 27.9608 28.8983 27.9608 28.5904V28.5289C27.9608 28.1262 27.1365 27.951 27.1318 27.951C26.3881 27.8278 25.1187 27.2689 25.1187 25.971V25.9094C25.1187 24.8152 26.0755 23.9199 27.2502 23.9199C28.0508 23.9199 28.7802 24.3889 29.0644 25.0899C29.2113 25.4547 29.036 25.8668 28.676 26.0136C28.3113 26.1604 27.8992 25.9852 27.7523 25.6252C27.686 25.4594 27.4823 25.341 27.255 25.341C26.8713 25.341 26.5444 25.6015 26.5444 25.9094V25.971C26.5444 26.3736 27.3687 26.5489 27.3734 26.5489C28.1171 26.672 29.3865 27.231 29.3865 28.5289V28.5904C29.3865 29.6847 28.4297 30.5799 27.255 30.5799Z" fill="#1072BA"/>
<path d="M27.2545 25.3458C26.8613 25.3458 26.5439 25.0284 26.5439 24.6353V23.4653C26.5439 23.0721 26.8613 22.7548 27.2545 22.7548C27.6476 22.7548 27.965 23.0721 27.965 23.4653V24.6353C27.965 25.0284 27.6476 25.3458 27.2545 25.3458Z" fill="#1072BA"/>
<path d="M27.2545 31.7547C26.8613 31.7547 26.5439 31.4374 26.5439 31.0442V29.8742C26.5439 29.4811 26.8613 29.1637 27.2545 29.1637C27.6476 29.1637 27.965 29.4811 27.965 29.8742V31.0442C27.965 31.4374 27.6476 31.7547 27.2545 31.7547Z" fill="#1072BA"/>
</g>
<defs>
<linearGradient id="paint0_linear_139_1430" x1="-6.3" y1="-3.75" x2="57.6246" y2="2.37755" gradientUnits="userSpaceOnUse">
<stop stop-color="#06B6D4"/>
<stop offset="1" stop-color="#3B82F6"/>
</linearGradient>
<clipPath id="clip0_139_1430">
<rect width="27" height="27" fill="white" transform="translate(7 7)"/>
</clipPath>
</defs>
</svg>
