<svg width="40" height="40" viewBox="0 0 40 40" fill="none" xmlns="http://www.w3.org/2000/svg">
<rect width="40" height="40" rx="20" fill="url(#paint0_linear_139_1420)" fill-opacity="0.2"/>
<g clip-path="url(#clip0_139_1420)">
<path d="M19.0789 32.1579H7.71053C7.31737 32.1579 7 31.8405 7 31.4474V8.71053C7 8.31737 7.31737 8 7.71053 8H27.1316C27.5247 8 27.8421 8.31737 27.8421 8.71053V21.3389C27.8421 21.7321 27.5247 22.0495 27.1316 22.0495C26.7384 22.0495 26.4211 21.7321 26.4211 21.3389V9.42105H8.42105V30.7368H19.0789C19.4721 30.7368 19.7895 31.0542 19.7895 31.4474C19.7895 31.8405 19.4721 32.1579 19.0789 32.1579Z" fill="#1072BA"/>
<path d="M19.5528 13.2105H15.2896C14.8965 13.2105 14.5791 12.8931 14.5791 12.5C14.5791 12.1068 14.8965 11.7894 15.2896 11.7894H19.5528C19.9459 11.7894 20.2633 12.1068 20.2633 12.5C20.2633 12.8931 19.9459 13.2105 19.5528 13.2105Z" fill="#1072BA"/>
<path d="M24.2897 16.5263H10.5528C10.1597 16.5263 9.84229 16.2089 9.84229 15.8158C9.84229 15.4226 10.1597 15.1052 10.5528 15.1052H24.2897C24.6828 15.1052 25.0002 15.4226 25.0002 15.8158C25.0002 16.2089 24.6828 16.5263 24.2897 16.5263Z" fill="#1072BA"/>
<path d="M24.2897 19.8421H10.5528C10.1597 19.8421 9.84229 19.5247 9.84229 19.1315C9.84229 18.7384 10.1597 18.421 10.5528 18.421H24.2897C24.6828 18.421 25.0002 18.7384 25.0002 19.1315C25.0002 19.5247 24.6828 19.8421 24.2897 19.8421Z" fill="#1072BA"/>
<path d="M16.4829 27.9706C15.4597 27.9706 14.9387 27.4448 14.6308 27.1321C14.5929 27.0942 14.5503 27.0469 14.5124 27.0137C14.4697 27.0374 14.4034 27.08 14.3181 27.1511C13.8729 27.5111 13.4371 27.6248 13.0297 27.4874C12.3571 27.2648 12.1629 26.5164 12.0018 25.9148C11.9971 25.8864 11.9876 25.8579 11.9781 25.8295C11.6324 26.2653 11.3576 26.9379 11.2392 27.3548C11.135 27.7337 10.7418 27.9516 10.3629 27.8474C9.98394 27.7432 9.76604 27.35 9.87025 26.9758C9.92709 26.7721 10.4529 24.9674 11.6087 24.2711C12.016 24.0248 12.3571 24.1053 12.5276 24.1716C13.0676 24.3895 13.2239 24.9816 13.3755 25.55C13.4087 25.6732 13.4513 25.8437 13.4987 25.9811C14.6403 25.1142 15.3129 25.7964 15.6445 26.1279C15.9571 26.4453 16.1845 26.6774 17.0229 26.4737C17.4066 26.3837 17.7903 26.6158 17.8803 26.9995C17.9703 27.3832 17.7381 27.7669 17.3545 27.8569C17.0324 27.9374 16.7434 27.9706 16.4876 27.9706H16.4829Z" fill="#1072BA"/>
<path d="M27.1314 35.0001C26.975 35.0001 26.814 34.948 26.6861 34.8438L25.2319 33.6691L23.3656 33.7638C23.0387 33.778 22.7308 33.5649 22.6456 33.238L22.1577 31.4333L20.5898 30.4101C20.3103 30.2254 20.1966 29.8749 20.315 29.5622L20.9829 27.8143L20.315 26.0664C20.1966 25.7538 20.315 25.4033 20.5898 25.2185L22.1577 24.1954L22.6456 22.3906C22.7308 22.0685 23.034 21.8554 23.3656 21.8649L25.2319 21.9596L26.6861 20.7849C26.9466 20.5764 27.3161 20.5764 27.5766 20.7849L29.0308 21.9596L30.8971 21.8649C31.2335 21.8554 31.5319 22.0638 31.6171 22.3906L32.105 24.1954L33.6729 25.2185C33.9524 25.4033 34.0661 25.7538 33.9477 26.0664L33.2798 27.8143L33.9477 29.5622C34.0661 29.8749 33.9477 30.2254 33.6729 30.4101L32.105 31.4333L31.6171 33.238C31.5319 33.5601 31.224 33.7685 30.8971 33.7638L29.0308 33.6691L27.5766 34.8438C27.444 34.948 27.2877 35.0001 27.1314 35.0001ZM25.464 32.2338C25.625 32.2338 25.7813 32.2906 25.9092 32.3901L27.1314 33.3754L28.3535 32.3901C28.4908 32.2812 28.6566 32.2243 28.8366 32.2338L30.4045 32.3143L30.8166 30.7985C30.864 30.6328 30.9682 30.4859 31.115 30.3912L32.4271 29.5338L31.8682 28.0701C31.8066 27.9091 31.8066 27.7291 31.8682 27.5633L32.4271 26.0996L31.115 25.2422C30.9682 25.1475 30.864 25.0006 30.8166 24.8349L30.4045 23.3191L28.8366 23.3996C28.6566 23.4043 28.4908 23.3522 28.3535 23.2433L27.1314 22.258L25.9092 23.2433C25.7719 23.3522 25.6061 23.4043 25.4261 23.3996L23.8582 23.3191L23.4461 24.8349C23.3987 25.0006 23.2945 25.1475 23.1477 25.2422L21.8356 26.0996L22.3945 27.5633C22.4561 27.7243 22.4561 27.9043 22.3945 28.0701L21.8356 29.5338L23.1477 30.3912C23.2945 30.4859 23.3987 30.6328 23.4461 30.7985L23.8582 32.3143L25.4261 32.2338C25.4261 32.2338 25.4498 32.2338 25.464 32.2338Z" fill="#1072BA"/>
<path d="M26.2178 30.3106C26.2178 30.3106 26.1894 30.3106 26.1752 30.3106C25.9715 30.2963 25.782 30.1969 25.6541 30.0358L23.9583 27.8284C23.7215 27.5158 23.7783 27.0706 24.091 26.8337C24.4036 26.5969 24.8489 26.6537 25.0857 26.9663L26.2841 28.5248L29.2352 25.5311C29.5099 25.2516 29.9599 25.2469 30.2394 25.5216C30.5189 25.7963 30.5236 26.2463 30.2489 26.5258L26.7247 30.1021C26.592 30.2395 26.4073 30.3153 26.2178 30.3153V30.3106Z" fill="#1072BA"/>
</g>
<defs>
<linearGradient id="paint0_linear_139_1420" x1="-6.8" y1="-3.75" x2="57.1246" y2="2.37755" gradientUnits="userSpaceOnUse">
<stop stop-color="#06B6D4"/>
<stop offset="1" stop-color="#3B82F6"/>
</linearGradient>
<clipPath id="clip0_139_1420">
<rect width="27" height="27" fill="white" transform="translate(7 8)"/>
</clipPath>
</defs>
</svg>
