<svg width="40" height="40" viewBox="0 0 40 40" fill="none" xmlns="http://www.w3.org/2000/svg">
<rect width="40" height="40" rx="20" fill="url(#paint0_linear_157_6168)" fill-opacity="0.2"/>
<g clip-path="url(#clip0_157_6168)">
<path d="M16.3265 24.5075C16.1892 24.5075 16.0518 24.4696 15.9286 24.3843C14.1618 23.1906 13.1055 21.2059 13.1055 19.0791C13.1055 15.5549 15.976 12.6843 19.5002 12.6843C23.0244 12.6843 25.8949 15.5549 25.8949 19.0791C25.8949 20.0075 25.7007 20.9075 25.317 21.7459C25.1513 22.1012 24.7344 22.2575 24.3744 22.0964C24.0192 21.9306 23.8628 21.5091 24.0239 21.1538C24.3223 20.5049 24.4739 19.8038 24.4739 19.0838C24.4739 16.3412 22.2428 14.1101 19.5002 14.1101C16.7576 14.1101 14.5265 16.3412 14.5265 19.0838C14.5265 20.7417 15.346 22.2859 16.7244 23.2143C17.0513 23.4322 17.1365 23.8775 16.9139 24.1996C16.7765 24.4033 16.5539 24.5122 16.3265 24.5122V24.5075Z" fill="#1072BA"/>
<path d="M19.4998 22.1579C17.8041 22.1579 16.4209 20.7747 16.4209 19.0789C16.4209 17.3832 17.8041 16 19.4998 16C21.1956 16 22.5788 17.3832 22.5788 19.0789C22.5788 19.4721 22.2614 19.7895 21.8683 19.7895C21.4751 19.7895 21.1577 19.4721 21.1577 19.0789C21.1577 18.1647 20.4141 17.4211 19.4998 17.4211C18.5856 17.4211 17.842 18.1647 17.842 19.0789C17.842 19.9932 18.5856 20.7368 19.4998 20.7368C19.893 20.7368 20.2104 21.0542 20.2104 21.4474C20.2104 21.8405 19.893 22.1579 19.4998 22.1579Z" fill="#1072BA"/>
<path d="M9.48168 25.1753C9.23536 25.1753 8.99852 25.0474 8.86589 24.82L8.02747 23.3705C7.56326 22.57 7.72431 21.5374 8.41115 20.9216C8.85168 20.5237 9.10747 19.9505 9.10747 19.3489V18.88C9.12168 18.2453 8.87063 17.6484 8.41115 17.2363C7.99905 16.8668 7.76221 16.3316 7.76221 15.7726C7.76221 15.4316 7.85221 15.0905 8.02747 14.7921L10.0454 11.2916C10.5096 10.4911 11.4806 10.1168 12.3617 10.3963C12.9301 10.5858 13.5743 10.51 14.1285 10.1832C14.2375 10.1121 14.3606 10.0411 14.4885 9.97C15.0333 9.66684 15.4217 9.15526 15.5543 8.55842C15.6443 8.12263 15.8906 7.72474 16.2459 7.44053C16.5869 7.15632 17.0275 7 17.4822 7H21.5275C21.9822 7 22.4227 7.15632 22.7733 7.44526C23.119 7.72474 23.3654 8.12263 23.4554 8.56316C23.5833 9.15526 23.9717 9.66684 24.5164 9.96526C24.649 10.0363 24.7722 10.1121 24.8954 10.1879C25.4259 10.5053 26.0938 10.5811 26.6385 10.3963C27.529 10.1121 28.5001 10.4911 28.9596 11.2868L30.9775 14.7826C31.1527 15.0858 31.2427 15.4268 31.2427 15.7679C31.2427 16.3268 31.0059 16.8621 30.589 17.2363C30.1343 17.6484 29.8833 18.2405 29.8975 18.8611V19.3442C29.8975 19.9458 30.1485 20.5142 30.5938 20.9168C31.2806 21.5374 31.4417 22.5653 30.9775 23.3658L30.139 24.8153C29.9401 25.1563 29.509 25.27 29.168 25.0758C28.8269 24.8768 28.7133 24.4458 28.9075 24.1047L29.7459 22.6553C29.8738 22.4326 29.8312 22.1437 29.6369 21.9684C28.898 21.3005 28.4764 20.3437 28.4764 19.3442V18.8753C28.4527 17.8568 28.8743 16.8716 29.6369 16.18C29.7554 16.0711 29.8217 15.9289 29.8217 15.7679C29.8217 15.6732 29.7933 15.5784 29.7459 15.4932L27.728 11.9974C27.6001 11.77 27.3254 11.6658 27.0743 11.7463C26.1648 12.0495 25.0517 11.9358 24.1517 11.4005C24.0333 11.3295 23.929 11.2679 23.8201 11.2063C22.9201 10.7089 22.2806 9.85158 22.0627 8.85684C22.0296 8.69579 21.9396 8.59632 21.8685 8.54421C21.769 8.45895 21.6459 8.41632 21.5227 8.41632H17.4775C17.3543 8.41632 17.2359 8.45895 17.1412 8.53947C17.0654 8.60105 16.9754 8.70053 16.9422 8.85211C16.7243 9.85632 16.0801 10.7089 15.1801 11.2063C15.0759 11.2632 14.9717 11.3247 14.8675 11.3911C13.9438 11.9405 12.8543 12.0542 11.9212 11.7416C11.6843 11.6658 11.4096 11.77 11.2769 11.9974L9.25905 15.4932C9.21168 15.5784 9.18326 15.6732 9.18326 15.7679C9.18326 15.9289 9.24958 16.0711 9.36326 16.1753C10.1306 16.8668 10.5522 17.8568 10.5285 18.8895V19.3442C10.5285 20.3437 10.1069 21.3005 9.368 21.9684C9.17852 22.1437 9.13115 22.4279 9.25905 22.6553L10.0975 24.1047C10.2964 24.4458 10.178 24.8768 9.83694 25.0758C9.72326 25.1421 9.60484 25.1705 9.48168 25.1705V25.1753Z" fill="#1072BA"/>
<path d="M10.7365 29.9736C8.9318 29.9736 7.46338 28.5051 7.46338 26.7004C7.46338 24.8957 8.9318 23.4272 10.7365 23.4272C12.5413 23.4272 14.0097 24.8957 14.0097 26.7004C14.0097 28.5051 12.5413 29.9736 10.7365 29.9736ZM10.7365 24.8483C9.71338 24.8483 8.88443 25.6772 8.88443 26.7004C8.88443 27.7236 9.71338 28.5525 10.7365 28.5525C11.7597 28.5525 12.5886 27.7236 12.5886 26.7004C12.5886 25.6772 11.7597 24.8483 10.7365 24.8483Z" fill="#1072BA"/>
<path d="M14.2895 34.0001H6.71053C6.31737 34.0001 6 33.6827 6 33.2896C6 30.6796 8.12684 28.5527 10.7368 28.5527C12.6837 28.5527 14.46 29.7748 15.1563 31.5891C15.2984 31.9538 15.1137 32.3659 14.7442 32.508C14.3795 32.6501 13.9674 32.4654 13.8253 32.0959C13.3374 30.8264 12.0963 29.9691 10.7321 29.9691C9.14526 29.9691 7.81895 31.0869 7.49211 32.5743H14.2847C14.6779 32.5743 14.9953 32.8917 14.9953 33.2848C14.9953 33.678 14.6779 33.9954 14.2847 33.9954L14.2895 34.0001Z" fill="#1072BA"/>
<path d="M28.2629 29.9736C26.4582 29.9736 24.9897 28.5051 24.9897 26.7004C24.9897 24.8957 26.4582 23.4272 28.2629 23.4272C30.0676 23.4272 31.5361 24.8957 31.5361 26.7004C31.5361 28.5051 30.0676 29.9736 28.2629 29.9736ZM28.2629 24.8483C27.2397 24.8483 26.4108 25.6772 26.4108 26.7004C26.4108 27.7236 27.2397 28.5525 28.2629 28.5525C29.2861 28.5525 30.115 27.7236 30.115 26.7004C30.115 25.6772 29.2861 24.8483 28.2629 24.8483Z" fill="#1072BA"/>
<path d="M32.2894 34H24.7105C24.3173 34 23.9999 33.6826 23.9999 33.2895C23.9999 32.8963 24.3173 32.579 24.7105 32.579H31.5031C31.1762 31.0916 29.8499 29.9737 28.2631 29.9737C26.8989 29.9737 25.6578 30.8263 25.1699 32.1005C25.0278 32.4653 24.6205 32.65 24.251 32.5126C23.8862 32.3705 23.7015 31.9632 23.8389 31.5937C24.5352 29.7747 26.3115 28.5574 28.2584 28.5574C30.8684 28.5574 32.9952 30.6842 32.9952 33.2942C32.9952 33.6874 32.6778 34.0047 32.2847 34.0047L32.2894 34Z" fill="#1072BA"/>
<path d="M19.4999 28.7894C17.2784 28.7894 15.4736 26.9847 15.4736 24.7631C15.4736 22.5416 17.2784 20.7368 19.4999 20.7368C21.7215 20.7368 23.5263 22.5416 23.5263 24.7631C23.5263 26.9847 21.7215 28.7894 19.4999 28.7894ZM19.4999 22.1579C18.0647 22.1579 16.8947 23.3279 16.8947 24.7631C16.8947 26.1984 18.0647 27.3684 19.4999 27.3684C20.9352 27.3684 22.1052 26.1984 22.1052 24.7631C22.1052 23.3279 20.9352 22.1579 19.4999 22.1579Z" fill="#1072BA"/>
<path d="M24.7107 34H14.2896C13.8965 34 13.5791 33.6826 13.5791 33.2895C13.5791 30.0258 16.2365 27.3684 19.5002 27.3684C22.7638 27.3684 25.4212 30.0258 25.4212 33.2895C25.4212 33.6826 25.1038 34 24.7107 34ZM15.057 32.5789H23.9433C23.6023 30.4331 21.7407 28.7895 19.5002 28.7895C17.2596 28.7895 15.398 30.4331 15.057 32.5789Z" fill="#1072BA"/>
</g>
<defs>
<linearGradient id="paint0_linear_157_6168" x1="-6.8" y1="-3.75" x2="57.1246" y2="2.37755" gradientUnits="userSpaceOnUse">
<stop stop-color="#06B6D4"/>
<stop offset="1" stop-color="#3B82F6"/>
</linearGradient>
<clipPath id="clip0_157_6168">
<rect width="27" height="27" fill="white" transform="translate(6 7)"/>
</clipPath>
</defs>
</svg>
