<svg width="40" height="41" viewBox="0 0 40 41" fill="none" xmlns="http://www.w3.org/2000/svg">
<rect y="0.25" width="40" height="40" rx="20" fill="url(#paint0_linear_139_5614)" fill-opacity="0.2"/>
<g clip-path="url(#clip0_139_5614)">
<path d="M17.1313 33.75C16.7381 33.75 16.4207 33.4326 16.4207 33.0395V26.6447H10.2628V33.0395C10.2628 33.4326 9.94548 33.75 9.55232 33.75C9.15917 33.75 8.8418 33.4326 8.8418 33.0395V25.9342C8.8418 25.541 9.15917 25.2237 9.55232 25.2237H17.1313C17.5244 25.2237 17.8418 25.541 17.8418 25.9342V33.0395C17.8418 33.4326 17.5244 33.75 17.1313 33.75Z" fill="#1072BA"/>
<path d="M17.1314 33.75C16.7383 33.75 16.4209 33.4326 16.4209 33.0395V23.0921C16.4209 22.6989 16.7383 22.3816 17.1314 22.3816C17.5246 22.3816 17.842 22.6989 17.842 23.0921V33.0395C17.842 33.4326 17.5246 33.75 17.1314 33.75Z" fill="#1072BA"/>
<path d="M24.7104 33.75C24.3172 33.75 23.9998 33.4326 23.9998 33.0395V19.0658H17.1314C16.7383 19.0658 16.4209 18.7484 16.4209 18.3553C16.4209 17.9621 16.7383 17.6447 17.1314 17.6447H24.7104C25.1035 17.6447 25.4209 17.9621 25.4209 18.3553V33.0395C25.4209 33.4326 25.1035 33.75 24.7104 33.75Z" fill="#1072BA"/>
<path d="M32.2895 33.75H6.71053C6.31737 33.75 6 33.4326 6 33.0395C6 32.6463 6.31737 32.3289 6.71053 32.3289H24V14.5658C24 14.1726 24.3174 13.8553 24.7105 13.8553H32.2895C32.6826 13.8553 33 14.1726 33 14.5658V33.0395C33 33.4326 32.6826 33.75 32.2895 33.75ZM25.4211 32.3289H31.5789V15.2763H25.4211V32.3289Z" fill="#1072BA"/>
<path d="M28.5 15.2763C28.1068 15.2763 27.7894 14.9589 27.7894 14.5658V11.4868H23.2894C23.0289 11.4868 22.7921 11.3447 22.6689 11.1221C22.5457 10.8947 22.5505 10.62 22.6878 10.4021L23.4931 9.12315L22.6878 7.84421C22.5505 7.62631 22.541 7.34684 22.6689 7.1242C22.7921 6.89684 23.0336 6.75947 23.2894 6.75947H28.5C28.8931 6.75947 29.2105 7.07684 29.2105 7.46999V14.5753C29.2105 14.9684 28.8931 15.2858 28.5 15.2858V15.2763ZM24.5778 10.0658H27.7942V8.17105H24.5778L24.9378 8.73947C25.0847 8.97157 25.0847 9.26526 24.9378 9.49736L24.5778 10.0658Z" fill="#1072BA"/>
<path d="M17.1316 20.9605H6.71053C6.31737 20.9605 6 20.6432 6 20.25V12.1974C6 11.8042 6.31737 11.4868 6.71053 11.4868H17.1316C17.5247 11.4868 17.8421 11.8042 17.8421 12.1974V20.25C17.8421 20.6432 17.5247 20.9605 17.1316 20.9605ZM7.42105 19.5395H16.4211V12.9079H7.42105V19.5395Z" fill="#1072BA"/>
<path d="M15.2371 12.9079C14.844 12.9079 14.5266 12.5905 14.5266 12.1974V10.7763C14.5266 10.3832 14.2092 10.0658 13.8161 10.0658H10.0266C9.63344 10.0658 9.31607 10.3832 9.31607 10.7763V12.1974C9.31607 12.5905 8.9987 12.9079 8.60555 12.9079C8.21239 12.9079 7.89502 12.5905 7.89502 12.1974V10.7763C7.89502 9.60158 8.85186 8.64474 10.0266 8.64474H13.8161C14.9908 8.64474 15.9477 9.60158 15.9477 10.7763V12.1974C15.9477 12.5905 15.6303 12.9079 15.2371 12.9079Z" fill="#1072BA"/>
<path d="M11.9213 17.3463C10.1119 17.3463 8.29766 17.0668 6.5024 16.5126C6.12819 16.3989 5.91977 16.0011 6.03345 15.6221C6.14714 15.2479 6.54977 15.0395 6.92398 15.1532C10.2445 16.1811 13.6077 16.1811 16.9235 15.1532C17.2977 15.0395 17.6956 15.2479 17.814 15.6221C17.9277 15.9963 17.7192 16.3942 17.345 16.5126C15.545 17.0668 13.7356 17.3463 11.9261 17.3463H11.9213Z" fill="#1072BA"/>
<path d="M9.07918 18.5921C8.68602 18.5921 8.36865 18.2747 8.36865 17.8816V16.3942C8.36865 16.0011 8.68602 15.6837 9.07918 15.6837C9.47234 15.6837 9.78971 16.0011 9.78971 16.3942V17.8816C9.78971 18.2747 9.47234 18.5921 9.07918 18.5921Z" fill="#1072BA"/>
<path d="M14.7628 18.5921C14.3696 18.5921 14.0522 18.2747 14.0522 17.8816V16.3942C14.0522 16.0011 14.3696 15.6837 14.7628 15.6837C15.1559 15.6837 15.4733 16.0011 15.4733 16.3942V17.8816C15.4733 18.2747 15.1559 18.5921 14.7628 18.5921Z" fill="#1072BA"/>
</g>
<defs>
<linearGradient id="paint0_linear_139_5614" x1="-6.8" y1="-3.5" x2="57.1246" y2="2.62755" gradientUnits="userSpaceOnUse">
<stop stop-color="#06B6D4"/>
<stop offset="1" stop-color="#3B82F6"/>
</linearGradient>
<clipPath id="clip0_139_5614">
<rect width="27" height="27" fill="white" transform="translate(6 6.75)"/>
</clipPath>
</defs>
</svg>
