<svg width="40" height="40" viewBox="0 0 40 40" fill="none" xmlns="http://www.w3.org/2000/svg">
<g id="Frame">
<rect width="40" height="40" rx="20" fill="url(#paint0_linear_139_1589)" fill-opacity="0.2"/>
<g id="Group">
<path id="Vector" d="M4.00006 33.8735L4.41485 34.8072L19.3001 28.6351L21.8933 28.9464L22.8267 31.7989L21.5821 32.9919C21.1153 33.4068 20.9598 34.0809 21.2191 34.7034L21.7378 36L30.3471 32.6288L29.8804 31.3841C29.6729 30.7616 29.1024 30.3987 28.4283 30.3987H26.7166L25.7831 28.1684L28.0652 27.0275C28.7912 26.6644 29.1025 25.8345 28.8432 25.1085L25.8869 17.1733C25.5758 16.3434 24.6939 15.9802 23.864 16.2396C23.864 16.2396 23.8124 16.2396 23.8124 16.2914L21.634 17.225L21.3228 16.447L22.5158 15.0468C23.3454 14.1131 23.864 12.9722 24.0198 11.7275L25.5238 9.91223C26.5093 8.77114 26.3018 7.05968 25.1606 6.07406C24.9533 5.9186 24.7459 5.76307 24.5385 5.65927C23.9679 5.39995 23.3973 5.34802 22.7751 5.50375L22.6194 5.03677C22.36 4.20713 21.4266 3.79209 20.6486 4.10334L9.70516 8.04504C8.87533 8.35629 8.46041 9.23786 8.77166 10.0158V10.0677L9.03099 10.7419C7.68251 11.3643 7.06 12.9202 7.52672 14.2688C7.8899 15.3061 8.82333 16.0322 9.91255 16.1876L12.3503 16.447C13.3357 17.1733 14.5284 17.64 15.7215 17.7436L17.4329 17.8994L17.7441 18.6773C17.381 18.8847 17.1217 19.2478 17.0181 19.7146L16.6549 21.4779L4 26.6125L4.36318 27.5979L11.6242 24.6936L13.3876 29.9837L4.00006 33.8735ZM28.8432 31.6953L28.9469 32.0063L22.3081 34.6515L22.1526 34.3403C22.1008 34.1328 22.1526 33.9254 22.2564 33.7699L24.0198 32.1102L26.2499 31.3841H28.3244C28.5838 31.3841 28.7395 31.4877 28.8431 31.6953H28.8432ZM25.5757 30.4504L23.7086 31.0729L23.0344 29.1021C23.3454 29.1538 23.6047 29.1021 23.864 28.9464L24.7459 28.5316L25.5757 30.4504ZM24.1754 17.0695C24.4347 16.9656 24.7459 17.0695 24.8497 17.3288L25.2645 18.4179L22.7231 19.2478L23.0344 20.2333L25.5758 19.4034L26.1979 21.0631L23.7605 21.8927L24.0717 22.8783L26.5611 22.0485L27.1836 23.708L24.7978 24.486L25.109 25.4716L27.5465 24.6417L27.8058 25.3159C27.9097 25.5752 27.8058 25.8345 27.5465 25.9384L23.4492 27.961C23.3455 28.0129 23.2419 28.0129 23.138 28.0129L19.6113 27.5978L17.6922 21.8411L18.0554 19.922C18.1073 19.7665 18.2109 19.6108 18.3666 19.5588L24.1754 17.0695ZM24.1234 6.5927C24.9533 6.95589 25.3683 7.94125 25.0052 8.82307C24.9533 8.97854 24.8497 9.08239 24.7459 9.23786L24.1234 10.0158C24.0717 9.49718 23.9679 9.0304 23.8124 8.51176L23.138 6.48917C23.5012 6.43724 23.8124 6.48917 24.1234 6.5927H24.1234ZM8.56401 14.0095C8.25302 13.1277 8.61594 12.1943 9.44584 11.7792L10.1719 13.5427C10.4313 14.165 10.7943 14.7875 11.2092 15.3061L10.1199 15.2023C9.39391 15.1504 8.77166 14.6836 8.56401 14.0095ZM15.9289 16.7582C13.8025 16.5508 11.9352 15.2023 11.1572 13.1796L9.80895 9.7565C9.70516 9.49718 9.80895 9.18599 10.0683 9.08239L21.0115 5.14063C21.1673 5.0887 21.2708 5.0887 21.4266 5.14063C21.5301 5.19249 21.634 5.29609 21.6859 5.45182L22.8267 8.87494C23.4492 10.7938 23.0344 12.8684 21.7378 14.3724L20.13 16.2396L20.5967 17.4843L18.7296 18.2623L18.2109 16.9657L15.9289 16.7582ZM12.6096 24.2786L13.8025 23.8118L15.0991 27.7536L16.0844 27.4424L14.7361 23.397L16.8107 22.5672L18.5741 27.8055L14.373 29.5689L12.6096 24.2786ZM29.6211 13.0758V13.5944H30.6583V13.0758C30.6583 11.6237 31.7995 10.4825 33.2516 10.4825V9.44525C31.7995 9.44525 30.6583 8.30443 30.6583 6.85203V6.33338H29.6211V6.85203C29.6211 8.30443 28.4802 9.44525 27.0278 9.44525V10.4825C28.4802 10.4825 29.6211 11.6237 29.6211 13.0758ZM30.1397 8.71921C30.4509 9.23786 30.8658 9.6529 31.3845 9.96396C30.8658 10.2751 30.4509 10.6902 30.1397 11.2088C29.8285 10.6902 29.4136 10.2751 28.895 9.9639C29.4136 9.6529 29.8285 9.23786 30.1397 8.71921Z" fill="url(#paint1_linear_139_1589)"/>
<path id="Vector_2" d="M6.80074 23.4487V23.9673H7.83803V23.4487C7.83803 21.9966 8.97918 20.8554 10.4313 20.8554V19.8181C8.97918 19.8181 7.83803 18.6773 7.83803 17.2249V16.7063H6.80074V17.2249C6.80074 18.6773 5.65985 19.8181 4.20752 19.8181V20.8554C5.65985 20.8554 6.80074 21.9966 6.80074 23.4487ZM7.31939 19.0921C7.63058 19.6108 8.04549 20.0258 8.56414 20.3369C8.04549 20.648 7.63058 21.0631 7.31939 21.5817C7.0082 21.0631 6.59329 20.648 6.07464 20.3368C6.59329 20.0258 7.0082 19.6108 7.31939 19.0921ZM32.733 17.2249V16.7063H31.6957V17.2249C31.6957 18.6773 30.5548 19.8181 29.1025 19.8181V20.8554C30.5548 20.8554 31.6957 21.9966 31.6957 23.4487V23.9673H32.733V23.4487C32.733 21.9966 33.8741 20.8554 35.3262 20.8554V19.8181C33.8741 19.8181 32.733 18.6773 32.733 17.2249ZM32.2143 21.5817C31.9032 21.0631 31.4882 20.648 30.9696 20.3368C31.4882 20.0258 31.9032 19.6108 32.2143 19.0921C32.5255 19.6108 32.9404 20.0258 33.4591 20.3369C32.9404 20.648 32.5255 21.0631 32.2143 21.5817ZM19.4039 13.2316L20.13 13.9576C22.9826 11.105 20.3374 6.74843 20.1819 6.5927L19.3001 7.16328C19.352 7.16328 21.6859 10.9495 19.4039 13.2316Z" fill="url(#paint2_linear_139_1589)"/>
</g>
</g>
<defs>
<linearGradient id="paint0_linear_139_1589" x1="-6.8" y1="-3.75" x2="57.1246" y2="2.37755" gradientUnits="userSpaceOnUse">
<stop stop-color="#06B6D4"/>
<stop offset="1" stop-color="#3B82F6"/>
</linearGradient>
<linearGradient id="paint1_linear_139_1589" x1="-0.972767" y1="0.999999" x2="45.8447" y2="5.10229" gradientUnits="userSpaceOnUse">
<stop stop-color="#06B6D4"/>
<stop offset="1" stop-color="#3B82F6"/>
</linearGradient>
<linearGradient id="paint2_linear_139_1589" x1="-1.08266" y1="4.96384" x2="47.6686" y2="13.3336" gradientUnits="userSpaceOnUse">
<stop stop-color="#06B6D4"/>
<stop offset="1" stop-color="#3B82F6"/>
</linearGradient>
</defs>
</svg>
