<svg width="41" height="40" viewBox="0 0 41 40" fill="none" xmlns="http://www.w3.org/2000/svg">
<rect x="0.5" width="40" height="40" rx="20" fill="url(#paint0_linear_139_1498)" fill-opacity="0.2"/>
<g clip-path="url(#clip0_139_1498)">
<path d="M14.8384 22.7435H16.3618V24.2669H14.8384V22.7435Z" fill="#1072BA"/>
<path d="M11.7915 22.7435H13.3149V24.2669H11.7915V22.7435Z" fill="#1072BA"/>
<path d="M29.7502 28.7357C28.6838 28.7357 28.1207 29.158 27.6682 29.4974C27.3012 29.7726 27.0588 29.9544 26.5002 29.9544C25.9416 29.9544 25.6992 29.7726 25.3322 29.4974C24.8798 29.158 24.3166 28.7357 23.2502 28.7357C22.1838 28.7357 21.6207 29.158 21.1682 29.4974C20.8013 29.7726 20.5589 29.9544 20.0004 29.9544C19.4418 29.9544 19.1993 29.7726 18.8324 29.4974C18.3799 29.158 17.8168 28.7357 16.7504 28.7357C15.6839 28.7357 15.1208 29.158 14.6683 29.4974C14.3014 29.7726 14.0589 29.9544 13.5004 29.9544C12.9417 29.9544 12.6993 29.7726 12.3323 29.4974C11.8798 29.158 11.3166 28.7357 10.2502 28.7357C9.18375 28.7357 8.62053 29.158 8.16807 29.4974C7.80107 29.7726 7.55864 29.9544 7 29.9544V31.4778C8.06641 31.4778 8.62962 31.0555 9.08208 30.7161C9.44908 30.4409 9.69151 30.2591 10.2502 30.2591C10.8088 30.2591 11.0513 30.4409 11.4183 30.7161C11.8708 31.0555 12.4339 31.4778 13.5004 31.4778C14.5668 31.4778 15.1299 31.0555 15.5824 30.7161C15.9493 30.4409 16.1918 30.2591 16.7504 30.2591C17.3089 30.2591 17.5513 30.4409 17.9183 30.7161C18.3708 31.0555 18.934 31.4778 20.0004 31.4778C21.0668 31.4778 21.6298 31.0555 22.0823 30.7161C22.4493 30.4409 22.6917 30.2591 23.2502 30.2591C23.8088 30.2591 24.0512 30.4409 24.4182 30.7161C24.8706 31.0555 25.4338 31.4778 26.5002 31.4778C27.5666 31.4778 28.1297 31.0555 28.5822 30.7161C28.9492 30.4409 29.1916 30.2591 29.7502 30.2591C30.3087 30.2591 30.5511 30.4409 30.9181 30.7161C31.3706 31.0555 31.9337 31.4778 33 31.4778V29.9544C32.4415 29.9544 32.1991 29.7726 31.8321 29.4974C31.3797 29.1581 30.8166 28.7357 29.7502 28.7357Z" fill="#1072BA"/>
<path d="M31.1073 25.5257L33 21.2679H30.7233V18.3328L28.7537 16.3631H27.9078V14.2596C27.9078 12.5792 26.5407 11.212 24.8602 11.212H23.4473C22.8125 9.63705 21.2695 8.52209 19.47 8.52209C17.1061 8.52209 15.1829 10.4453 15.1829 12.8092V13.2853H13.9455L9.3268 16.3919V19.6314H7V21.4453L8.88246 25.5309C8.59814 25.6712 8.3718 25.8406 8.16812 25.9934C7.80112 26.2686 7.5587 26.4504 7.00005 26.4504V27.9739C8.06646 27.9739 8.62967 27.5515 9.08213 27.2121C9.44913 26.9369 9.69156 26.7551 10.2502 26.7551C10.8088 26.7551 11.0513 26.9369 11.4183 27.2121C11.8708 27.5515 12.434 27.9739 13.5004 27.9739C14.5668 27.9739 15.13 27.5515 15.5824 27.2121C15.9494 26.9369 16.1918 26.7551 16.7504 26.7551C17.309 26.7551 17.5514 26.9369 17.9184 27.2121C18.3709 27.5515 18.934 27.9739 20.0004 27.9739C21.0668 27.9739 21.6299 27.5515 22.0824 27.2121C22.4493 26.9369 22.6917 26.7551 23.2503 26.7551C23.8088 26.7551 24.0512 26.9369 24.4182 27.2121C24.8707 27.5515 25.4338 27.9739 26.5003 27.9739C27.5667 27.9739 28.1298 27.5515 28.5823 27.2121C28.9492 26.9369 29.1917 26.7551 29.7503 26.7551C30.3088 26.7551 30.5512 26.9369 30.9181 27.2121C31.3706 27.5515 31.9337 27.9739 33.0001 27.9739V26.4504C32.4416 26.4504 32.1992 26.2686 31.8322 25.9934C31.6259 25.8388 31.3966 25.667 31.1073 25.5257ZM29.1999 18.9638V21.2678H26.5726V18.9755C26.5726 18.5959 26.5126 18.2301 26.4026 17.8866H28.1227L29.1999 18.9638ZM22.9954 16.9217C23.8587 16.9217 24.5989 17.4575 24.9021 18.2137H21.0886C21.3919 17.4575 22.1321 16.9217 22.9954 16.9217ZM20.9416 19.7372H25.0491V21.2678H20.9416V19.7372ZM24.8602 12.7355C25.7006 12.7355 26.3844 13.4192 26.3844 14.2597V16.3632H25.4355C24.9733 15.9312 24.397 15.6201 23.7572 15.4808V12.8093C23.7572 12.7846 23.7557 12.7601 23.7553 12.7355L24.8602 12.7355ZM16.7064 12.8093C16.7064 11.2854 17.9462 10.0456 19.47 10.0456C20.9939 10.0456 22.2337 11.2854 22.2337 12.8093V15.4808C20.6261 15.8309 19.4182 17.2644 19.4182 18.9755V20.8167L17.914 19.9523V13.2853H16.7064V12.8093ZM14.4102 14.8088H16.3905V16.4584H11.9577L14.4102 14.8088ZM10.8502 17.9818H16.3905V19.6315H10.8502V17.9818ZM27.6681 25.9934C27.3012 26.2686 27.0587 26.4505 26.5002 26.4505C25.9416 26.4505 25.6992 26.2686 25.3322 25.9934C24.8797 25.6541 24.3166 25.2317 23.2502 25.2317C22.1837 25.2317 21.6207 25.6541 21.1682 25.9934C20.8012 26.2686 20.5588 26.4505 20.0003 26.4505C19.4417 26.4505 19.1993 26.2686 18.8323 25.9934C18.3799 25.6541 17.8167 25.2317 16.7503 25.2317C15.6839 25.2317 15.1207 25.6541 14.6683 25.9934C14.3013 26.2686 14.0589 26.4505 13.5003 26.4505C12.9417 26.4505 12.6992 26.2686 12.3322 25.9934C11.905 25.673 11.3788 25.2788 10.4237 25.2358L8.54345 21.1549H16.9488L19.7966 22.7913H30.6987L29.5755 25.2358C28.6211 25.279 28.0952 25.6731 27.6681 25.9934Z" fill="#1072BA"/>
</g>
<defs>
<linearGradient id="paint0_linear_139_1498" x1="-6.3" y1="-3.75" x2="57.6246" y2="2.37755" gradientUnits="userSpaceOnUse">
<stop stop-color="#06B6D4"/>
<stop offset="1" stop-color="#3B82F6"/>
</linearGradient>
<clipPath id="clip0_139_1498">
<rect width="26" height="26" fill="white" transform="translate(7 7)"/>
</clipPath>
</defs>
</svg>
