<svg width="41" height="40" viewBox="0 0 41 40" fill="none" xmlns="http://www.w3.org/2000/svg">
<rect x="0.5" width="40" height="40" rx="20" fill="url(#paint0_linear_139_1342)" fill-opacity="0.2"/>
<path d="M32.919 10.0391C32.919 8.6931 32.3949 7.42769 31.4431 6.47596C30.4914 5.52412 29.2259 5 27.88 5C26.534 5 25.2686 5.52413 24.3168 6.47591L22.0795 8.71323L20.4222 7.05592L15.2017 12.2764L16.3618 13.4365L8.82121 20.9771C7.86177 21.9366 7.86177 23.4979 8.82121 24.4574L9.40128 25.0374L7.08105 27.3576L10.5614 30.8379L12.0612 29.338V33H21.9021V28.7724C22.5964 28.0246 24.4579 25.7402 25.0999 22.1746L25.6427 22.7173L30.8631 17.4969L29.2058 15.8396L31.4431 13.6023C32.3949 12.6505 32.919 11.385 32.919 10.0391ZM19.8422 16.9168L18.6821 18.0769L16.3619 15.7566L17.5219 14.5966L19.8422 16.9168ZM16.9419 24.4574C16.6221 24.7772 16.1017 24.7773 15.7818 24.4574L11.7215 20.397L12.8815 19.237L16.9409 23.2962C16.9412 23.2966 16.9415 23.297 16.9419 23.2973C16.942 23.2975 16.9421 23.2976 16.9423 23.2977C17.2617 23.6175 17.2616 24.1377 16.9419 24.4574ZM16.4616 20.4969L14.0416 18.0769L15.2018 16.9167L17.522 19.237L16.9419 19.817C16.7385 20.0204 16.5788 20.2509 16.4616 20.4969ZM9.9813 22.1372L10.5614 21.5571L14.6218 25.6175C14.9416 25.9374 14.9416 26.4578 14.6218 26.7776C14.302 27.0974 13.7818 27.0974 13.4619 26.7779L9.98135 23.2973C9.66148 22.9775 9.66148 22.4571 9.9813 22.1372ZM9.40128 27.3577L10.5614 26.1976L11.7215 27.3577L10.5614 28.5178L9.40128 27.3577ZM22.0065 25.8656C21.2575 27.1376 20.5276 27.8333 20.522 27.8386L20.2614 28.0818V31.3594H13.7019V28.6337C13.8146 28.6493 13.9281 28.6574 14.0416 28.6574C14.6718 28.6574 15.302 28.4175 15.7818 27.9377C16.2271 27.4924 16.4654 26.9174 16.4974 26.3332C17.0816 26.3012 17.6566 26.0629 18.102 25.6176C18.5473 25.1722 18.7856 24.5972 18.8175 24.0129C19.4018 23.981 19.9768 23.7427 20.4221 23.2974L22.1623 21.5572L21.0022 20.3972L19.262 22.1373C18.9422 22.4571 18.4218 22.4571 18.102 22.1373C17.947 21.9823 17.8617 21.7763 17.8617 21.5572C17.8617 21.3381 17.947 21.1322 18.102 20.9772L21.0022 18.0769L23.6384 20.7131C23.4496 22.9904 22.6565 24.7614 22.0065 25.8656ZM25.6426 20.397L17.5219 12.2764L20.4222 9.37615L28.5428 17.4969L25.6426 20.397ZM30.283 12.4421L28.0457 14.6794L23.2395 9.87326L25.4768 7.63594C26.1188 6.99413 26.9722 6.64062 27.88 6.64062C28.7877 6.64062 29.6411 6.99413 30.283 7.63605C30.9249 8.27791 31.2784 9.13131 31.2784 10.0391C31.2784 10.9468 30.9249 11.8002 30.283 12.4421Z" fill="#1072BA"/>
<defs>
<linearGradient id="paint0_linear_139_1342" x1="-6.3" y1="-3.75" x2="57.6246" y2="2.37755" gradientUnits="userSpaceOnUse">
<stop stop-color="#06B6D4"/>
<stop offset="1" stop-color="#3B82F6"/>
</linearGradient>
</defs>
</svg>
