<svg width="41" height="41" viewBox="0 0 41 41" fill="none" xmlns="http://www.w3.org/2000/svg">
<rect x="0.5" y="0.5" width="40" height="40" rx="20" fill="url(#paint0_linear_139_1443)" fill-opacity="0.2"/>
<g clip-path="url(#clip0_139_1443)">
<path d="M28.7693 9.03022V22.2204C28.7693 22.2946 28.7594 22.3689 28.7297 22.4381C28.4873 22.4035 28.2449 22.3887 27.9925 22.3887C27.7649 22.3887 27.5423 22.4035 27.3197 22.4332C27.2949 22.3639 27.285 22.2946 27.285 22.2204V9.77236H8.48427V32.0364H19.6163C20.0269 32.0364 20.3584 32.3679 20.3584 32.7785C20.3584 33.1892 20.0269 33.5207 19.6163 33.5207H7.74213C7.33149 33.5207 7 33.1892 7 32.7785V9.03022C7 8.61957 7.33149 8.28809 7.74213 8.28809H28.0272C28.4378 8.28809 28.7693 8.61957 28.7693 9.03022Z" fill="#1072BA"/>
<path d="M20.1114 13.7305H15.6586C15.248 13.7305 14.9165 13.399 14.9165 12.9884C14.9165 12.5777 15.248 12.2462 15.6586 12.2462H20.1114C20.5221 12.2462 20.8536 12.5777 20.8536 12.9884C20.8536 13.399 20.5221 13.7305 20.1114 13.7305Z" fill="#1072BA"/>
<path d="M25.0583 17.1936H10.7104C10.2997 17.1936 9.96826 16.8621 9.96826 16.4515C9.96826 16.0408 10.2997 15.7094 10.7104 15.7094H25.0583C25.469 15.7094 25.8005 16.0408 25.8005 16.4515C25.8005 16.8621 25.469 17.1936 25.0583 17.1936Z" fill="#1072BA"/>
<path d="M25.0583 20.657H10.7104C10.2997 20.657 9.96826 20.3255 9.96826 19.9149C9.96826 19.5042 10.2997 19.1727 10.7104 19.1727H25.0583C25.469 19.1727 25.8005 19.5042 25.8005 19.9149C25.8005 20.3255 25.469 20.657 25.0583 20.657Z" fill="#1072BA"/>
<path d="M16.9052 29.1471C15.8365 29.1471 15.2923 28.5979 14.9707 28.2714C14.9311 28.2318 14.8866 28.1823 14.847 28.1477C14.8024 28.1724 14.7332 28.2169 14.6441 28.2912C14.1791 28.6672 13.7239 28.7859 13.2984 28.6424C12.5958 28.4099 12.393 27.6282 12.2248 26.9998C12.2198 26.9702 12.2099 26.9405 12.2 26.9108C11.8389 27.366 11.5519 28.0685 11.4282 28.5039C11.3194 28.8997 10.9087 29.1273 10.5129 29.0185C10.1171 28.9096 9.88952 28.499 9.99836 28.1081C10.0577 27.8954 10.6069 26.0103 11.8141 25.283C12.2396 25.0258 12.5958 25.1099 12.7739 25.1791C13.338 25.4067 13.5012 26.0252 13.6596 26.6189C13.6942 26.7475 13.7387 26.9256 13.7882 27.0691C14.9806 26.1637 15.6831 26.8762 16.0294 27.2225C16.356 27.554 16.5935 27.7964 17.4692 27.5837C17.8699 27.4897 18.2707 27.7321 18.3647 28.1328C18.4587 28.5336 18.2163 28.9343 17.8155 29.0283C17.4791 29.1125 17.1773 29.1471 16.9101 29.1471H16.9052Z" fill="#1072BA"/>
<path d="M28.7694 20.9439C28.5121 20.9191 28.2548 20.9043 27.9926 20.9043C27.7551 20.9043 27.5176 20.9142 27.2851 20.9389C23.7327 21.2952 20.9473 24.3033 20.9473 27.9546C20.9473 31.8384 24.1088 34.9999 27.9926 34.9999C31.8764 34.9999 35.0429 31.8384 35.0429 27.9546C35.0429 24.328 32.292 21.3347 28.7694 20.9439ZM27.9926 33.5156C24.9251 33.5156 22.4315 31.0221 22.4315 27.9546C22.4315 25.1097 24.5689 22.7596 27.3197 22.4331C27.5424 22.4034 27.765 22.3886 27.9926 22.3886C28.2449 22.3886 28.4874 22.4034 28.7298 22.438C31.4509 22.7992 33.5586 25.1345 33.5586 27.9546C33.5586 31.0221 31.0601 33.5156 27.9926 33.5156Z" fill="#1072BA"/>
<path d="M27.9926 31.4277C27.1564 31.4277 26.3945 30.9379 26.0977 30.2057C25.9443 29.8247 26.1274 29.3943 26.5034 29.2409C26.8843 29.0875 27.3148 29.2706 27.4681 29.6466C27.5374 29.8198 27.7502 29.9434 27.9876 29.9434C28.3884 29.9434 28.7298 29.6713 28.7298 29.3497V29.2854C28.7298 28.8649 27.8689 28.6818 27.8639 28.6818C27.0872 28.5532 25.7612 27.9694 25.7612 26.6137V26.5494C25.7612 25.4065 26.7606 24.4714 27.9876 24.4714C28.8238 24.4714 29.5857 24.9612 29.8826 25.6935C30.0359 26.0744 29.8529 26.5049 29.4769 26.6583C29.0959 26.8116 28.6655 26.6286 28.5121 26.2526C28.4428 26.0794 28.2301 25.9557 27.9926 25.9557C27.5918 25.9557 27.2504 26.2278 27.2504 26.5494V26.6137C27.2504 27.0343 28.1113 27.2173 28.1163 27.2173C28.893 27.346 30.219 27.9298 30.219 29.2854V29.3497C30.219 30.4926 29.2196 31.4277 27.9926 31.4277Z" fill="#1072BA"/>
<path d="M27.9926 25.9607C27.582 25.9607 27.2505 25.6292 27.2505 25.2186V23.9965C27.2505 23.5859 27.582 23.2544 27.9926 23.2544C28.4033 23.2544 28.7348 23.5859 28.7348 23.9965V25.2186C28.7348 25.6292 28.4033 25.9607 27.9926 25.9607Z" fill="#1072BA"/>
<path d="M27.9926 32.6549C27.582 32.6549 27.2505 32.3234 27.2505 31.9128V30.6907C27.2505 30.2801 27.582 29.9486 27.9926 29.9486C28.4033 29.9486 28.7348 30.2801 28.7348 30.6907V31.9128C28.7348 32.3234 28.4033 32.6549 27.9926 32.6549Z" fill="#1072BA"/>
</g>
<defs>
<linearGradient id="paint0_linear_139_1443" x1="-6.3" y1="-3.25" x2="57.6246" y2="2.87755" gradientUnits="userSpaceOnUse">
<stop stop-color="#06B6D4"/>
<stop offset="1" stop-color="#3B82F6"/>
</linearGradient>
<clipPath id="clip0_139_1443">
<rect width="28.0428" height="26.7119" fill="white" transform="translate(7 8.28809)"/>
</clipPath>
</defs>
</svg>
