<svg width="40" height="40" viewBox="0 0 40 40" fill="none" xmlns="http://www.w3.org/2000/svg">
<rect width="40" height="40" rx="20" fill="url(#paint0_linear_139_5601)" fill-opacity="0.2"/>
<path d="M16.88 10.76C16.96 10.92 17.16 11.04 17.32 11.04C17.4 11.04 17.48 11 17.6 10.96C17.84 10.8 17.92 10.48 17.8 10.24L16.56 8.08001C16.4 7.84001 16.08 7.76001 15.84 7.88001C15.6 8.04001 15.52 8.36001 15.64 8.60001L16.88 10.76ZM20 10.28C20.28 10.28 20.52 10.04 20.52 9.76001V7.28001C20.52 7.00001 20.28 6.76001 20 6.76001C19.72 6.76001 19.48 7.00001 19.48 7.28001V9.76001C19.48 10.08 19.72 10.28 20 10.28ZM22.4 10.96C22.48 11 22.56 11.04 22.68 11.04C22.88 11.04 23.04 10.96 23.12 10.76L24.36 8.60001C24.52 8.36001 24.4 8.04001 24.16 7.88001C23.92 7.72001 23.6 7.84001 23.44 8.08001L22.2 10.24C22.08 10.48 22.16 10.8 22.4 10.96ZM7.51996 25.88C7.51996 25.6 7.27996 25.36 6.99996 25.36C6.71996 25.36 6.47996 25.6 6.47996 25.88V27.64H5.03996V26.52C5.03996 23.68 7.35996 21.36 10.2 21.36C11.36 21.36 12.44 21.72 13.28 22.4C13.48 22.12 13.72 21.84 13.96 21.6C13.48 21.24 12.92 20.92 12.32 20.72C13.36 20.04 14.08 18.84 14.08 17.48C14.08 15.32 12.32 13.6 10.2 13.6C8.03996 13.6 6.31996 15.36 6.31996 17.48C6.31996 18.84 6.99996 20.04 8.07996 20.72C5.67996 21.6 3.95996 23.84 3.95996 26.52V28.16C3.95996 28.44 4.19996 28.68 4.47996 28.68H11.48V27.64H7.51996V25.88ZM7.31996 17.44C7.31996 15.88 8.59996 14.6 10.16 14.6C11.72 14.6 13 15.88 13 17.44C13 19 11.72 20.28 10.16 20.28C8.59996 20.32 7.31996 19.04 7.31996 17.44ZM31.96 20.72C33 20.04 33.72 18.84 33.72 17.48C33.72 15.32 31.96 13.6 29.84 13.6C27.68 13.6 25.96 15.36 25.96 17.48C25.96 18.84 26.64 20.04 27.72 20.72C27.12 20.92 26.6 21.24 26.08 21.6C26.32 21.84 26.56 22.12 26.76 22.4C27.64 21.76 28.68 21.36 29.84 21.36C32.68 21.36 35 23.68 35 26.52V27.64H33.56V25.88C33.56 25.6 33.32 25.36 33.04 25.36C32.76 25.36 32.52 25.6 32.52 25.88V27.64H28.56V28.68H35.56C35.84 28.68 36.08 28.44 36.08 28.16V26.52C36.04 23.84 34.32 21.6 31.96 20.72ZM27 17.44C27 15.88 28.28 14.6 29.84 14.6C31.4 14.6 32.68 15.88 32.68 17.44C32.68 19 31.4 20.28 29.84 20.28C28.28 20.32 27 19.04 27 17.44Z" fill="#1072BA"/>
<path d="M22.3601 20.48C23.7201 19.68 24.6401 18.2 24.6401 16.48C24.6401 13.92 22.5601 11.84 20.0001 11.84C17.4401 11.84 15.3601 13.92 15.3601 16.48C15.3601 18.16 16.2801 19.68 17.6401 20.48C14.6801 21.48 12.5601 24.24 12.5601 27.56V29.56C12.5601 29.84 12.8001 30.08 13.0801 30.08H16.0401L14.8801 29.04H13.6001V27.56C13.6001 24.04 16.4801 21.16 20.0001 21.16C23.5201 21.16 26.4001 24.04 26.4001 27.56V29.04H25.1201L23.9601 30.08H26.9201C27.2001 30.08 27.4401 29.84 27.4401 29.56V27.56C27.4401 24.28 25.3201 21.48 22.3601 20.48ZM16.4001 16.52C16.4001 14.56 18.0001 12.92 19.9601 12.92C21.9201 12.92 23.5201 14.52 23.5201 16.52C23.5201 18.52 21.9201 20.12 19.9601 20.12C18.0001 20.12 16.4001 18.48 16.4001 16.52Z" fill="#1072BA"/>
<path d="M22.6801 29.84L24.7601 27.96C24.9201 27.84 24.9601 27.56 24.9201 27.4C24.8401 27.2 24.6801 27.04 24.4401 27.04L21.6401 26.72L20.4801 24.16C20.4001 23.96 20.2001 23.84 19.9601 23.84C19.7601 23.84 19.5601 23.96 19.4401 24.16L18.2801 26.72L15.4801 27.04C15.2801 27.08 15.0801 27.24 15.0001 27.4C14.9201 27.6 15.0001 27.84 15.1601 27.96L17.2401 29.84L16.6801 32.6C16.6401 32.8 16.7201 33.04 16.8801 33.16C17.0401 33.28 17.2801 33.28 17.4801 33.2L19.9201 31.8L22.3601 33.2C22.4401 33.24 22.5201 33.28 22.6401 33.28C22.7601 33.28 22.8801 33.24 22.9601 33.16C23.1201 33.04 23.2001 32.8 23.1601 32.6L22.6801 29.84ZM21.6001 29.76L22.0001 31.72L20.2801 30.72C20.1201 30.64 19.9201 30.64 19.7601 30.72L18.0001 31.68L18.4001 29.72C18.4401 29.52 18.3601 29.36 18.2401 29.24L16.7601 27.88L18.7601 27.64C18.9601 27.6 19.1201 27.52 19.2001 27.32L20.0401 25.48L20.8801 27.32C20.9601 27.48 21.1201 27.6 21.3201 27.64L23.3201 27.88L21.8401 29.24C21.6001 29.36 21.5601 29.56 21.6001 29.76Z" fill="#1072BA"/>
<defs>
<linearGradient id="paint0_linear_139_5601" x1="-6.8" y1="-3.75" x2="57.1246" y2="2.37755" gradientUnits="userSpaceOnUse">
<stop stop-color="#06B6D4"/>
<stop offset="1" stop-color="#3B82F6"/>
</linearGradient>
</defs>
</svg>
