<svg width="40" height="40" viewBox="0 0 40 40" fill="none" xmlns="http://www.w3.org/2000/svg">
<rect width="40" height="40" rx="20" fill="url(#paint0_linear_157_5742)" fill-opacity="0.2"/>
<g clip-path="url(#clip0_157_5742)">
<path d="M21.2939 28.614H9.97368C8.88596 28.614 8 27.7281 8 26.6404V9.97368C8 8.88596 8.88596 8 9.97368 8H27.5175C28.6053 8 29.4912 8.88596 29.4912 9.97368V18.9298C29.4912 19.2939 29.1974 19.5877 28.8333 19.5877C28.4693 19.5877 28.1754 19.2939 28.1754 18.9298V9.97368C28.1754 9.60965 27.8816 9.31579 27.5175 9.31579H9.97368C9.60965 9.31579 9.31579 9.60965 9.31579 9.97368V26.6404C9.31579 27.0044 9.60965 27.2982 9.97368 27.2982H21.2939C21.6579 27.2982 21.9518 27.5921 21.9518 27.9561C21.9518 28.3202 21.6579 28.614 21.2939 28.614Z" fill="#1072BA"/>
<path d="M18.7458 30.3684C18.3818 30.3684 18.0879 30.0745 18.0879 29.7105V27.9561C18.0879 27.5921 18.3818 27.2982 18.7458 27.2982C19.1098 27.2982 19.4037 27.5921 19.4037 27.9561V29.7105C19.4037 30.0745 19.1098 30.3684 18.7458 30.3684Z" fill="#1072BA"/>
<path d="M20.9387 33C20.7501 33 20.5615 32.9211 20.4343 32.7632L18.7457 30.7368L17.0571 32.7632C16.8247 33.0439 16.408 33.079 16.1317 32.8465C15.851 32.614 15.8159 32.1974 16.0483 31.9211L18.2413 29.2895C18.4913 28.9912 19.0001 28.9912 19.2501 29.2895L21.4431 31.9211C21.6755 32.2018 21.6361 32.614 21.3597 32.8465C21.2369 32.9474 21.0878 33 20.9387 33Z" fill="#1072BA"/>
<path d="M28.8333 12.8246H8.65789C8.29386 12.8246 8 12.5307 8 12.1667C8 11.8026 8.29386 11.5088 8.65789 11.5088H28.8333C29.1974 11.5088 29.4912 11.8026 29.4912 12.1667C29.4912 12.5307 29.1974 12.8246 28.8333 12.8246Z" fill="#1072BA"/>
<path d="M19.6226 23.3509H11.2892C10.9252 23.3509 10.6313 23.057 10.6313 22.693V15.2369C10.6313 14.8728 10.9252 14.579 11.2892 14.579C11.6533 14.579 11.9471 14.8728 11.9471 15.2369V22.0351H19.6226C19.9866 22.0351 20.2805 22.329 20.2805 22.693C20.2805 23.057 19.9866 23.3509 19.6226 23.3509Z" fill="#1072BA"/>
<path d="M11.2893 20.7193C11.0788 20.7193 10.8682 20.6184 10.7411 20.4254C10.5393 20.1228 10.6226 19.7149 10.9253 19.5131L13.5568 17.7587C13.8156 17.5833 14.1665 17.6184 14.3858 17.8421L15.3112 18.7675L19.2454 16.0131C19.5437 15.807 19.9516 15.8772 20.1621 16.1754C20.3726 16.4736 20.2981 16.8815 19.9998 17.0921L15.6139 20.1622C15.3507 20.3465 14.9954 20.3157 14.7718 20.0877L13.8375 19.1535L11.6533 20.6096C11.5393 20.6842 11.4165 20.7193 11.2893 20.7193Z" fill="#1072BA"/>
<path d="M26.2018 15.8948H22.6931C22.329 15.8948 22.0352 15.6009 22.0352 15.2369C22.0352 14.8728 22.329 14.579 22.6931 14.579H26.2018C26.5659 14.579 26.8597 14.8728 26.8597 15.2369C26.8597 15.6009 26.5659 15.8948 26.2018 15.8948Z" fill="#1072BA"/>
<path d="M26.2018 18.5264H24.4474C24.0834 18.5264 23.7896 18.2325 23.7896 17.8685C23.7896 17.5044 24.0834 17.2106 24.4474 17.2106H26.2018C26.5659 17.2106 26.8597 17.5044 26.8597 17.8685C26.8597 18.2325 26.5659 18.5264 26.2018 18.5264Z" fill="#1072BA"/>
<path d="M26.75 33C23.307 33 20.5044 30.1974 20.5044 26.7544C20.5044 23.3114 23.307 20.5088 26.75 20.5088C30.193 20.5088 33 23.3114 33 26.7544C33 30.1974 30.1974 33 26.75 33ZM26.75 21.8202C24.0307 21.8202 21.8202 24.0307 21.8202 26.75C21.8202 29.4693 24.0307 31.6798 26.75 31.6798C29.4693 31.6798 31.6842 29.4693 31.6842 26.75C31.6842 24.0307 29.4737 21.8202 26.75 21.8202Z" fill="#1072BA"/>
<path d="M26.75 27.4123H26.7368L21.2807 27.3202C20.9166 27.3158 20.6272 27.0132 20.6359 26.6492C20.6403 26.2851 20.9298 26.0088 21.307 26.0044L26.4298 26.0922L29.614 21.9079C29.8333 21.6185 30.2456 21.5615 30.5351 21.7808C30.8245 22.0001 30.8815 22.4123 30.6623 22.7018L27.2763 27.1492C27.1535 27.3115 26.9561 27.4079 26.7544 27.4079L26.75 27.4123Z" fill="#1072BA"/>
<path d="M29.9123 31.8114C29.7061 31.8114 29.5044 31.7149 29.3772 31.5395L26.2149 27.136C26.0044 26.8421 26.0702 26.4298 26.364 26.2193C26.6579 26.0088 27.0702 26.0746 27.2807 26.3684L30.443 30.7719C30.6535 31.0658 30.5877 31.4781 30.2939 31.6886C30.1798 31.7719 30.0439 31.8114 29.9123 31.8114Z" fill="#1072BA"/>
</g>
<defs>
<linearGradient id="paint0_linear_157_5742" x1="-6.8" y1="-3.75" x2="57.1246" y2="2.37755" gradientUnits="userSpaceOnUse">
<stop stop-color="#06B6D4"/>
<stop offset="1" stop-color="#3B82F6"/>
</linearGradient>
<clipPath id="clip0_157_5742">
<rect width="25" height="25" fill="white" transform="translate(8 8)"/>
</clipPath>
</defs>
</svg>
