<svg width="40" height="40" viewBox="0 0 40 40" fill="none" xmlns="http://www.w3.org/2000/svg">
<rect width="40" height="40" rx="20" fill="url(#paint0_linear_139_1589)" fill-opacity="0.2"/>
<g clip-path="url(#clip0_139_1589)">
<path d="M28.7672 23.8246C28.6619 23.8246 28.5523 23.7982 28.4558 23.7456C28.1356 23.5746 28.0172 23.1754 28.1882 22.8553C28.9602 21.4298 29.3681 19.8158 29.3681 18.1842C29.3681 12.7412 24.9426 8.31579 19.4996 8.31579C14.0567 8.31579 9.63122 12.7412 9.63122 18.1842C9.63122 19.8158 10.0391 21.4298 10.811 22.8553C10.9821 23.1754 10.8637 23.5746 10.5435 23.7456C10.2233 23.9167 9.8242 23.7982 9.65315 23.4781C8.77596 21.8596 8.31543 20.0307 8.31543 18.1842C8.31543 12.0175 13.333 7 19.4996 7C25.6663 7 30.6838 12.0175 30.6838 18.1842C30.6838 20.0307 30.2233 21.864 29.3461 23.4781C29.2277 23.6974 28.9996 23.8246 28.7672 23.8246Z" fill="#1072BA"/>
<path d="M11.3862 28.2719C9.71512 28.2719 8.35547 26.9123 8.35547 25.2412C8.35547 23.5702 9.71512 22.2105 11.3862 22.2105C13.0572 22.2105 14.4169 23.5702 14.4169 25.2412C14.4169 26.9123 13.0572 28.2719 11.3862 28.2719ZM11.3862 23.5263C10.4388 23.5263 9.67126 24.2939 9.67126 25.2412C9.67126 26.1886 10.4388 26.9561 11.3862 26.9561C12.3335 26.9561 13.1011 26.1886 13.1011 25.2412C13.1011 24.2939 12.3335 23.5263 11.3862 23.5263Z" fill="#1072BA"/>
<path d="M14.6754 32H7.65789C7.29386 32 7 31.7061 7 31.3421C7 28.9254 8.9693 26.9561 11.386 26.9561C13.1886 26.9561 14.8333 28.0877 15.4781 29.7675C15.6096 30.1053 15.4386 30.4868 15.0965 30.6184C14.7588 30.75 14.3772 30.5789 14.2456 30.2368C13.7939 29.0614 12.6447 28.2675 11.3816 28.2675C9.91667 28.2675 8.68421 29.3026 8.38158 30.6798H14.6711C15.0351 30.6798 15.3289 30.9737 15.3289 31.3377C15.3289 31.7018 15.0351 31.9956 14.6711 31.9956L14.6754 32Z" fill="#1072BA"/>
<path d="M27.6137 28.2719C25.9427 28.2719 24.583 26.9123 24.583 25.2412C24.583 23.5702 25.9427 22.2105 27.6137 22.2105C29.2848 22.2105 30.6444 23.5702 30.6444 25.2412C30.6444 26.9123 29.2848 28.2719 27.6137 28.2719ZM27.6137 23.5263C26.6663 23.5263 25.8988 24.2939 25.8988 25.2412C25.8988 26.1886 26.6663 26.9561 27.6137 26.9561C28.5611 26.9561 29.3286 26.1886 29.3286 25.2412C29.3286 24.2939 28.5611 23.5263 27.6137 23.5263Z" fill="#1072BA"/>
<path d="M31.3422 32H24.3247C23.9607 32 23.6668 31.7061 23.6668 31.3421C23.6668 30.9781 23.9607 30.6842 24.3247 30.6842H30.6142C30.3115 29.307 29.0835 28.2719 27.6142 28.2719C26.351 28.2719 25.2019 29.0614 24.7501 30.2412C24.6186 30.5789 24.2414 30.75 23.8993 30.6228C23.5571 30.4956 23.3905 30.114 23.5177 29.7719C24.1624 28.0877 25.8071 26.9605 27.6098 26.9605C30.0264 26.9605 31.9957 28.9298 31.9957 31.3465C31.9957 31.7105 31.7019 32.0044 31.3379 32.0044L31.3422 32Z" fill="#1072BA"/>
<path d="M19.4997 18.8421C19.1357 18.8421 18.8418 18.5482 18.8418 18.1842V7.65789C18.8418 7.29386 19.1357 7 19.4997 7C19.8637 7 20.1576 7.29386 20.1576 7.65789V18.1842C20.1576 18.5482 19.8637 18.8421 19.4997 18.8421Z" fill="#1072BA"/>
<path d="M24.5352 21.9123C24.5001 21.9123 24.4694 21.9123 24.4343 21.9035C24.0747 21.8509 23.8291 21.5132 23.8817 21.1535C24.0265 20.193 24.101 19.193 24.101 18.1842C24.101 12.8333 21.9914 8.31579 19.4958 8.31579C17.0001 8.31579 14.8905 12.8333 14.8905 18.1842C14.8905 19.1974 14.965 20.193 15.1098 21.1535C15.1624 21.5132 14.9168 21.8465 14.5572 21.9035C14.1975 21.9605 13.8642 21.7105 13.8072 21.3509C13.6493 20.3246 13.5703 19.2588 13.5703 18.1798C13.5791 11.9123 16.18 7 19.5001 7C22.8203 7 25.4212 11.9123 25.4212 18.1842C25.4212 19.2632 25.3422 20.3289 25.1843 21.3553C25.1361 21.6798 24.8554 21.9123 24.5352 21.9123Z" fill="#1072BA"/>
<path d="M30.026 18.8421H8.97332C8.60929 18.8421 8.31543 18.5482 8.31543 18.1842C8.31543 17.8202 8.60929 17.5263 8.97332 17.5263H30.026C30.39 17.5263 30.6838 17.8202 30.6838 18.1842C30.6838 18.5482 30.39 18.8421 30.026 18.8421Z" fill="#1072BA"/>
<path d="M28.6096 13.5789H10.3903C10.0263 13.5789 9.73242 13.2851 9.73242 12.9211C9.73242 12.557 10.0263 12.2632 10.3903 12.2632H28.6096C28.9736 12.2632 29.2675 12.557 29.2675 12.9211C29.2675 13.2851 28.9736 13.5789 28.6096 13.5789Z" fill="#1072BA"/>
<path d="M19.5 27.1754C17.443 27.1754 15.772 25.5044 15.772 23.4474C15.772 21.3904 17.443 19.7193 19.5 19.7193C21.5571 19.7193 23.2281 21.3904 23.2281 23.4474C23.2281 25.5044 21.5571 27.1754 19.5 27.1754ZM19.5 21.0351C18.1711 21.0351 17.0878 22.1184 17.0878 23.4474C17.0878 24.7763 18.1711 25.8597 19.5 25.8597C20.829 25.8597 21.9123 24.7763 21.9123 23.4474C21.9123 22.1184 20.829 21.0351 19.5 21.0351Z" fill="#1072BA"/>
<path d="M24.3246 32H14.6755C14.3114 32 14.0176 31.7061 14.0176 31.3421C14.0176 28.3202 16.4781 25.8596 19.5 25.8596C22.522 25.8596 24.9825 28.3202 24.9825 31.3421C24.9825 31.7061 24.6886 32 24.3246 32ZM15.386 30.6842H23.6141C23.2983 28.6974 21.5746 27.1754 19.5 27.1754C17.4255 27.1754 15.7018 28.6974 15.386 30.6842Z" fill="#1072BA"/>
</g>
<defs>
<linearGradient id="paint0_linear_139_1589" x1="-6.8" y1="-3.75" x2="57.1246" y2="2.37755" gradientUnits="userSpaceOnUse">
<stop stop-color="#06B6D4"/>
<stop offset="1" stop-color="#3B82F6"/>
</linearGradient>
<clipPath id="clip0_139_1589">
<rect width="25" height="25" fill="white" transform="translate(7 7)"/>
</clipPath>
</defs>
</svg>
