<svg width="34" height="33" viewBox="0 0 34 33" fill="none" xmlns="http://www.w3.org/2000/svg">
<g clip-path="url(#clip0_746_3637)">
<path d="M18.6002 20.4944C18.7057 20.4944 18.8112 20.5447 18.8815 20.6251C18.9469 20.7105 18.982 20.826 18.9569 20.9315L18.3992 23.8406H17.3943L18.3741 26.2222C17.8717 27.3075 17.319 28.3726 16.7261 29.4026C16.1332 28.3676 15.5906 27.3024 15.0882 26.2222L16.0679 23.8406H15.063L14.5053 20.9315C14.4852 20.826 14.5154 20.7054 14.5807 20.6251C14.646 20.5396 14.7515 20.4944 14.8621 20.4944H18.6002ZM11.0988 17.9019C10.6466 18.0777 5.70767 20.0272 4.33602 20.9667C2.89906 21.9515 2.00974 23.0619 1.24604 24.7501C0.482339 26.4382 0 28.4028 0 30.1965C0 30.4125 0.135658 30.6135 0.326583 30.6989C4.84348 32.7539 13.1337 33.0001 16.7261 33.0001C20.3185 33.0001 28.6087 32.7589 33.1256 30.6989C33.3165 30.6135 33.4522 30.4075 33.4522 30.1965C33.4522 28.4078 32.9749 26.4433 32.2062 24.7501C31.4424 23.0619 30.5531 21.9515 29.1162 20.9667C27.7445 20.0272 22.8056 18.0777 22.3534 17.9019C21.3686 22.6298 19.4192 27.7044 16.7211 32.0153C14.023 27.7044 12.0735 22.6298 11.0888 17.9019H11.0988Z" fill="#333333"/>
<path d="M16.7262 0C11.7973 0 7.78784 4.00944 7.78784 8.93834C7.78784 10.8275 8.37067 12.6413 9.47603 14.1637C9.77749 14.5907 10.1191 14.9927 10.496 15.3595C12.1791 16.9874 14.3949 17.8817 16.7262 17.8817C19.0575 17.8817 21.3938 16.9371 23.082 15.2288C23.4437 14.8621 23.7854 14.4501 24.0919 14.0079C25.1219 12.5157 25.6695 10.7622 25.6695 8.93834C25.6695 4.00944 21.6551 0 16.7262 0ZM22.8459 13.1538C22.5946 13.5206 22.3133 13.8622 22.0118 14.1637C20.605 15.5906 18.7309 16.3744 16.7262 16.3744C14.7215 16.3744 12.9479 15.6258 11.541 14.2742C11.2346 13.9778 10.9532 13.6462 10.702 13.2894C9.78251 12.0132 9.29515 10.511 9.29515 8.93834C9.29515 4.83846 12.6263 1.50731 16.7262 1.50731C20.8261 1.50731 24.1622 4.83846 24.1622 8.93834C24.1622 10.4507 23.71 11.9077 22.8459 13.1538Z" fill="#333333"/>
</g>
<defs>
<clipPath id="clip0_746_3637">
<rect width="33.4572" height="33" fill="white"/>
</clipPath>
</defs>
</svg>
