<svg width="48" height="30" viewBox="0 0 48 30" fill="none" xmlns="http://www.w3.org/2000/svg">
<g clip-path="url(#clip0_746_3636)">
<path d="M30.5099 0C28.2991 0 26.2794 0.803898 24.7218 2.13535C25.1087 2.45691 25.4654 2.81867 25.787 3.20554C27.0682 2.1454 28.7162 1.50731 30.5099 1.50731C34.6097 1.50731 37.9459 4.83846 37.9459 8.93834C37.9459 10.4507 37.4887 11.9077 36.6295 13.1538C36.3783 13.5206 36.097 13.8622 35.7955 14.1637C34.3887 15.5906 32.5146 16.3744 30.5099 16.3744C29.9421 16.3744 29.3894 16.3091 28.8468 16.1835C29.5502 16.6959 30.2084 17.2637 30.8164 17.8767C33.1125 17.8013 35.2478 16.8668 36.8607 15.2288C37.2274 14.8621 37.5691 14.4501 37.8706 14.0079C38.9056 12.5107 39.4532 10.7622 39.4532 8.93834C39.4532 4.00944 35.4388 0 30.5099 0ZM38.6845 15.0731C38.3529 15.5604 37.9861 16.0126 37.5691 16.4297C36.112 17.9068 34.1927 18.9268 32.0423 19.2533C34.2631 22.0519 35.5895 25.5941 35.5895 29.4478H47.1606C47.1606 23.2578 43.734 17.8717 38.6845 15.0731Z" fill="#333333"/>
<path d="M24.6514 5.40119C23.5913 2.9493 21.466 1.06516 18.8583 0.336632C18.0896 0.11556 17.2757 0 16.4366 0C11.5077 0 7.49826 4.00944 7.49826 8.93834C7.49826 10.8275 8.08611 12.6363 9.18645 14.1637C9.48791 14.5907 9.83459 14.9927 10.2114 15.3595C10.6234 15.7564 11.0656 16.1131 11.5378 16.4196C12.8794 17.2989 14.4319 17.8063 16.0547 17.8717C16.1804 17.8717 16.311 17.8817 16.4366 17.8817C17.2706 17.8817 18.0896 17.7661 18.8684 17.5501C20.3456 17.1381 21.6921 16.3442 22.7924 15.2288C23.1592 14.8621 23.5009 14.4501 23.8023 14.0079C24.1389 13.5256 24.4203 13.0131 24.6514 12.4805C25.1338 11.3701 25.38 10.1743 25.38 8.93834C25.38 7.70234 25.1187 6.48645 24.6514 5.40119ZM22.5613 13.1538C22.3051 13.5206 22.0287 13.8622 21.7222 14.1637C20.3204 15.5906 18.4413 16.3744 16.4366 16.3744C16.3914 16.3744 16.3512 16.3744 16.306 16.3694C15.4167 16.3593 14.5525 16.1885 13.7385 15.8669C13.4521 15.7564 13.1758 15.6258 12.9045 15.475C12.3116 15.1585 11.7589 14.7515 11.2565 14.2742C10.95 13.9778 10.6686 13.6462 10.4174 13.2894C9.49293 12.0132 9.00557 10.511 9.00557 8.93834C9.00557 4.87865 12.2714 1.57765 16.311 1.51233C16.3512 1.51233 16.3964 1.51233 16.4366 1.51233C20.5365 1.51233 23.8727 4.84348 23.8727 8.94336C23.8727 10.4557 23.4205 11.9128 22.5613 13.1588V13.1538ZM28.9674 18.57C28.5252 18.0676 28.0479 17.5903 27.5455 17.1481C27.1887 16.8316 26.8169 16.5301 26.4351 16.2488C25.8573 15.8167 25.2493 15.4248 24.6163 15.0731C24.4756 15.2791 24.3299 15.4801 24.1691 15.671C23.9631 15.9373 23.737 16.1885 23.5009 16.4297C22.9582 16.9773 22.3553 17.4647 21.6971 17.8717C21.5162 17.9872 21.3354 18.0927 21.1444 18.1882C21.1444 18.1882 21.1444 18.1932 21.1394 18.1982C20.431 18.5751 19.6723 18.8715 18.8734 19.0674C18.0997 19.2634 17.2907 19.3689 16.4517 19.3689C14.1957 19.3689 12.1106 18.6102 10.4375 17.3391C10.126 17.1029 9.82957 16.8467 9.5482 16.5754C9.13118 16.1734 8.75435 15.7313 8.42274 15.259C3.54409 18.0977 0.263184 23.3934 0.263184 29.4478H33.0924C33.0924 25.2725 31.5348 21.4641 28.9674 18.57Z" fill="#333333"/>
</g>
<defs>
<clipPath id="clip0_746_3636">
<rect width="46.8974" height="29.4478" fill="white" transform="translate(0.263184)"/>
</clipPath>
</defs>
</svg>
