<svg width="20" height="21" viewBox="0 0 20 21" fill="none" xmlns="http://www.w3.org/2000/svg">
<mask id="mask0_986_10427" style="mask-type:alpha" maskUnits="userSpaceOnUse" x="1" y="1" width="18" height="19">
<g clip-path="url(#clip0_986_10427)">
<g clip-path="url(#clip1_986_10427)">
<mask id="mask1_986_10427" style="mask-type:luminance" maskUnits="userSpaceOnUse" x="1" y="1" width="18" height="19">
<path d="M18.8113 1.63675H1.0498V19.3983H18.8113V1.63675Z" fill="white"/>
</mask>
<g mask="url(#mask1_986_10427)">
<path d="M18.6621 14.647C18.03 13.5055 15.2616 12.7784 12.817 12.6406C12.5961 12.404 12.3718 12.1552 12.1419 11.8937C10.041 9.49163 9.1903 6.00089 8.87257 4.15165C8.8348 3.75981 8.79326 3.43405 8.75832 3.19139C8.73 2.9983 8.67051 2.5956 8.25176 2.5956C8.11768 2.5956 7.98832 2.65319 7.89626 2.75564C7.74708 2.92607 7.76926 3.10925 7.7957 3.32075C7.82545 3.56341 7.8703 3.88822 7.93403 4.25882C8.11296 6.13638 8.19746 9.71116 6.75235 12.5509C6.60175 12.8469 6.45162 13.1311 6.30244 13.4021C3.59824 14.1886 1.41617 15.5912 1.09656 16.7545C0.980893 17.1756 1.08145 17.5793 1.38029 17.8918C1.72823 18.2553 2.13896 18.4394 2.60115 18.4394C3.88056 18.4394 5.33889 17.0146 6.93553 14.2061C7.64652 14.0191 8.35231 13.8888 9.0345 13.8199C9.3003 13.793 9.73039 13.7368 9.99476 13.6962C10.7232 13.5838 11.5475 13.5385 12.3945 13.5664C14.3546 15.604 15.9574 16.6369 17.1585 16.6369C17.8034 16.6365 18.3373 16.322 18.6612 15.7517C18.8604 15.3986 18.8614 15.0058 18.6621 14.647ZM2.60068 17.4952C2.40051 17.4952 2.22961 17.414 2.06201 17.2389C1.99356 17.1676 1.97845 17.1062 2.00677 17.0052C2.17154 16.4061 3.55575 15.3792 5.57872 14.6338C4.43575 16.4372 3.34189 17.4952 2.60068 17.4952ZM9.84983 12.7643C9.59867 12.803 9.19077 12.8558 8.93867 12.8823C8.48025 12.9276 8.00909 12.9998 7.53369 13.0971C7.55351 13.0584 7.57334 13.0192 7.59317 12.98C8.3018 11.5878 8.74086 9.91842 8.90326 8.00498C9.55335 9.82447 10.4012 11.338 11.4309 12.5155C11.4611 12.5504 11.4928 12.5858 11.523 12.6217C10.9286 12.6358 10.3677 12.6845 9.84983 12.7643ZM17.8378 15.2881C17.6811 15.5657 17.4583 15.6946 17.1386 15.6946C16.388 15.6946 15.2332 14.9841 13.8514 13.6811C15.99 13.9497 17.556 14.597 17.8369 15.1045C17.8775 15.1781 17.8775 15.2173 17.8378 15.2881Z" fill="#D90200"/>
</g>
</g>
</g>
</mask>
<g mask="url(#mask0_986_10427)">
<rect x="1.0498" y="1.53002" width="17.94" height="17.94" fill="#D90200"/>
</g>
<defs>
<clipPath id="clip0_986_10427">
<rect width="17.94" height="17.94" fill="white" transform="translate(1.0498 1.53002)"/>
</clipPath>
<clipPath id="clip1_986_10427">
<rect width="17.94" height="17.94" fill="white" transform="translate(1.0498 1.53002)"/>
</clipPath>
</defs>
</svg>
