<svg width="15" height="12" viewBox="0 0 15 12" fill="none" xmlns="http://www.w3.org/2000/svg">
<path d="M12.7616 3.03156C12.7708 3.1574 12.7708 3.28323 12.7708 3.4099C12.7708 7.2474 9.84912 11.6699 4.50995 11.6699C2.86495 11.6699 1.33661 11.1932 0.0507812 10.3666C0.284948 10.3932 0.509948 10.4016 0.752448 10.4016C2.10995 10.4016 3.35828 9.94323 4.35661 9.16156C3.07995 9.1349 2.01078 8.29823 1.64245 7.1474C1.82161 7.17406 2.00161 7.1924 2.18911 7.1924C2.45078 7.1924 2.71161 7.15656 2.95411 7.09406C1.62411 6.82406 0.625781 5.65573 0.625781 4.2449C0.625781 4.23573 0.625781 4.2174 0.625781 4.20906C1.01245 4.42406 1.46161 4.55906 1.93828 4.5774C1.15661 4.05573 0.644115 3.16573 0.644115 2.1599C0.644115 1.62073 0.788281 1.12573 1.03995 0.694063C2.46911 2.45656 4.61745 3.6074 7.02662 3.7324C6.98078 3.51656 6.95412 3.29156 6.95412 3.06656C6.95412 1.4674 8.24911 0.164062 9.85745 0.164062C10.6933 0.164062 11.4483 0.514063 11.9791 1.08073C12.6349 0.954896 13.2633 0.712396 13.8216 0.379896C13.6058 1.05406 13.1474 1.62073 12.5449 1.97906C13.1299 1.91656 13.6958 1.7549 14.2174 1.5299C13.8216 2.1049 13.3274 2.61823 12.7616 3.03156Z" fill="white"/>
</svg>
