<svg width="13" height="15" viewBox="0 0 13 15" fill="none" xmlns="http://www.w3.org/2000/svg">
<path fill-rule="evenodd" clip-rule="evenodd" d="M2.49808 0.833252C2.66558 1.32325 2.83891 1.82159 3.01224 2.31159C3.26558 3.04659 3.42391 3.59992 3.49558 3.98742V6.12992H4.28558V3.98742L5.24224 0.833252H4.43558L3.89808 2.91242L3.33724 0.833252H2.49808ZM6.30139 6.18487C6.66556 6.18487 6.94223 6.0507 7.13973 5.78154C7.29056 5.58404 7.36056 5.26737 7.36056 4.8482V3.46487C7.36056 3.0457 7.29056 2.73737 7.13973 2.53987C6.94139 2.27237 6.66473 2.13737 6.30139 2.13737C5.94473 2.13737 5.66806 2.27154 5.47223 2.53987C5.32139 2.7382 5.25056 3.04654 5.25056 3.4657V4.84904C5.25056 5.2682 5.32139 5.57654 5.47223 5.78237C5.66806 6.0507 5.94473 6.18487 6.30139 6.18487ZM5.96138 3.32324C5.96138 2.95991 6.07221 2.77824 6.30138 2.77824C6.53888 2.77824 6.64138 2.95991 6.64138 3.32324V4.98324C6.64138 5.34741 6.53888 5.53657 6.30138 5.53657C6.07221 5.53657 5.96138 5.34657 5.96138 4.98324V3.32324ZM7.94638 5.29988C7.94638 5.58404 7.96888 5.77321 8.00888 5.89237C8.07971 6.09071 8.24555 6.18488 8.47471 6.18488C8.73721 6.18488 9.00555 6.02654 9.28971 5.69488V6.12988H10.0089V2.18488H9.28971V5.19654C9.13138 5.42571 8.98138 5.53654 8.83971 5.53654C8.74471 5.53654 8.68971 5.47404 8.67388 5.36321C8.66555 5.34654 8.66555 5.25238 8.66555 5.08571V2.18488H7.94638V5.29988ZM10.7447 10.6758V11.0391H10.0331V10.6758C10.0331 10.32 10.1522 10.1375 10.3889 10.1375C10.6256 10.1383 10.7447 10.32 10.7447 10.6758ZM12.1197 8.15405C11.9772 7.52905 11.4631 7.07072 10.8547 6.99989C9.39972 6.84155 7.92889 6.84155 6.46639 6.84155C5.00389 6.84155 3.53305 6.84155 2.08639 6.99989C1.47139 7.07072 0.96472 7.52905 0.81472 8.15405C0.61722 9.03905 0.608887 10.0041 0.608887 10.9207C0.608887 11.8299 0.608887 12.8016 0.81472 13.6874C0.95722 14.3124 1.47139 14.7707 2.07972 14.8341C3.53389 14.9999 5.00472 14.9999 6.46722 14.9999C7.92972 14.9999 9.40055 14.9999 10.8556 14.8341C11.4631 14.7707 11.9697 14.3124 12.1206 13.6874C12.3181 12.8024 12.3264 11.8299 12.3264 10.9207L12.3264 10.909C12.3255 9.99587 12.3247 9.0353 12.1197 8.15405ZM3.10804 8.95238H3.95304V8.20905H1.48637V8.95238H2.3172V13.4507H3.10804V8.95238ZM6.08804 13.4508H5.38388V13.0241C5.09888 13.3483 4.83054 13.5066 4.57721 13.5066C4.34888 13.5066 4.18221 13.4116 4.11888 13.2141C4.07888 13.0958 4.05554 12.9133 4.05554 12.6375V9.54663H4.75971V12.4241V12.4242C4.75971 12.5908 4.75971 12.6775 4.76721 12.7016C4.78388 12.8116 4.83888 12.8675 4.93304 12.8675C5.07638 12.8675 5.22638 12.7575 5.38388 12.5358V9.54746H6.08804V13.4508ZM8.70472 13.0707C8.75972 12.9049 8.77639 12.6449 8.77639 12.2807V10.7232C8.77639 10.359 8.75972 10.099 8.70472 9.94071C8.61806 9.64821 8.41972 9.49821 8.14305 9.49821C7.88222 9.49821 7.63639 9.63988 7.40722 9.92488V8.20905H6.70472V13.4507H7.40722V13.0707C7.64472 13.3632 7.89056 13.5057 8.14305 13.5057C8.41972 13.5057 8.61806 13.3557 8.70472 13.0707ZM11.4481 11.6324H10.0331V12.3199C10.0331 12.6841 10.1522 12.8649 10.3972 12.8649C10.5714 12.8649 10.6739 12.7707 10.7139 12.5807C10.7214 12.5416 10.7297 12.3832 10.7297 12.0982H11.4489V12.2016C11.4489 12.4307 11.4489 12.5891 11.4331 12.6599C11.4164 12.8174 11.3531 12.9599 11.2672 13.0866C11.0764 13.3632 10.7847 13.5057 10.4139 13.5057C10.0422 13.5057 9.76472 13.3716 9.55972 13.1024C9.40972 12.9124 9.33056 12.6041 9.33056 12.1849V10.8174C9.33056 10.3982 9.40222 10.0982 9.55222 9.89992C9.75806 9.63075 10.0347 9.49658 10.3989 9.49658C10.7556 9.49658 11.0314 9.63075 11.2364 9.89992C11.3797 10.0974 11.4506 10.3974 11.4506 10.8174V11.6324H11.4481ZM8.07223 12.3358V10.6674C8.07223 10.3199 7.96889 10.1383 7.76389 10.1383C7.64473 10.1383 7.52639 10.1933 7.40723 10.3124V12.6916C7.52639 12.8099 7.64473 12.8649 7.76389 12.8649C7.96889 12.8649 8.07223 12.6916 8.07223 12.3358Z" fill="white"/>
</svg>
